<?xml version="1.0" encoding="UTF-8" standalone="no"?>
<svg
   id="svg8"
   version="1.1"
   viewBox="0 0 100 100"
   height="1000"
   width="1000"
   sodipodi:docname="bjc-logo-web.svg"
   inkscape:version="1.2 (1:1.2.1+202207142221+cd75a1ee6d)"
   xmlns:inkscape="http://www.inkscape.org/namespaces/inkscape"
   xmlns:sodipodi="http://sodipodi.sourceforge.net/DTD/sodipodi-0.dtd"
   xmlns="http://www.w3.org/2000/svg"
   xmlns:svg="http://www.w3.org/2000/svg">
  <style
     id="style">
      .outline {
         fill: none;
         stroke: #000000;
         stroke-width: 0.25;
      }
      .solid-club-handle-1,
      .solid-club-handle-2,
      .solid-club-handle-3,
      .hollow-club-handle-1,
      .hollow-club-handle-2,
      .hollow-club-handle-3
      {
         fill: #ffffff;
      }
      .solid-club-1,
      .hollow-club-1,
      .knob-1 {
         fill: #67b3ca;
      }
      .solid-club-2,
      .hollow-club-2,
      .knob-2 {
         fill: #8e6dc5;
      }
      .solid-club-3,
      .hollow-club-3,
      .knob-3 {
         fill: #d693d8;
      }

      .solid-cap-1,
      .solid-mid-1,
      .hollow-cap-1,
      .hollow-mid-1,
      .solid-cap-2,
      .solid-mid-2,
      .hollow-cap-2,
      .hollow-mid-2,
      .solid-cap-3,
      .solid-mid-3,
      .hollow-cap-3,
      .hollow-mid-3
      {
         fill: #000000;
      }

      .hollow-club-3 {
         <!-- fill: #ff00ff; -->
      }

      .text {
         fill: #000000;
      }
  </style>
  <g
     id="solid-club-handle-1"
     class="outline">
    <path
       d="m 52.394524,60.939583 -3.166779,0.601073 c 0,0 0.220686,0.600769 0.440099,1.617228 0.21942,1.016464 0.266288,1.65516 0.266288,1.65516 l 1.005043,-0.243374 c 0.06521,-0.101822 0.254129,-0.38594 6e-6,6e-6 0.24479,-0.402838 0.601724,-1.345715 0.84582,-1.886616 0.438328,-0.866896 0.444097,-1.269009 0.609523,-1.743482 z" />
    <path
       d="m 56.746351,60.113571 -4.351827,0.826012 c -0.163622,0.497311 -0.415966,1.311558 -0.609517,1.743482 -0.244096,0.540901 -0.451898,1.250628 -0.696687,1.653466 -0.08513,0.140091 -0.08393,0.131323 -0.149139,0.233145 l 4.477991,-1.084478 c 0.03231,-0.05193 0.02653,-0.03845 0.0617,-0.09642 0.244784,-0.402844 0.452591,-1.11257 0.696681,-1.653471 0.241182,-0.534459 0.443881,-1.239973 0.5708,-1.621731 z" />
    <path
       d="m 61.089323,59.28917 -4.342972,0.824401 c -0.126919,0.381758 -0.329617,1.087272 -0.570799,1.621731 -0.244091,0.540901 -0.451898,1.250628 -0.696681,1.653471 -0.03523,0.05792 -0.0294,0.04449 -0.0617,0.09642 l 4.47323,-1.083148 c 0.241391,-0.399076 0.438038,-1.087833 0.6757,-1.614505 0.220327,-0.488226 0.397914,-1.12972 0.523226,-1.498375 z" />
    <path
       d="m 65.431953,58.46455 -4.34263,0.82462 c -0.125312,0.368655 -0.302899,1.010149 -0.523226,1.498375 -0.237662,0.526672 -0.434309,1.215429 -0.6757,1.614505 l 4.461601,-1.080637 c 0.22746,-0.382282 0.388862,-1.003426 0.604655,-1.481626 0.19947,-0.442026 0.353425,-1.024798 0.4753,-1.375237 z" />
    <path
       d="m 69.774641,57.640218 -4.342688,0.824332 c -0.121875,0.350439 -0.27583,0.933211 -0.4753,1.375237 -0.215793,0.4782 -0.377195,1.099344 -0.604655,1.481626 l 4.461937,-1.080417 c 0.210291,-0.359755 0.33934,-0.919234 0.533269,-1.348967 0.178583,-0.395735 0.310824,-0.924319 0.427437,-1.251811 z" />
    <path
       d="m 74.117271,56.815597 -4.34263,0.824621 c -0.116613,0.327492 -0.248854,0.856076 -0.427437,1.251811 -0.193929,0.429733 -0.322978,0.989212 -0.533269,1.348967 l 4.461606,-1.080637 c 0.190385,-0.332064 0.289885,-0.834792 0.461935,-1.216029 0.157737,-0.349553 0.27023,-0.82841 0.379795,-1.128733 z" />
    <path
       d="m 76.246997,56.411377 -2.129726,0.40422 c -0.109565,0.300323 -0.222058,0.779185 -0.3798,1.128733 -0.172044,0.381243 -0.271545,0.88397 -0.461936,1.216029 l 3.377926,-0.806567 c -0.0048,-0.01782 0.01204,0.06275 0,0 l -0.406464,-1.942415 c -0.0043,-0.02026 0.0032,0.0202 -1.34e-4,3.5e-5 z" />
  </g>
  <g
     id="solid-club-handle-2"
     class="outline">
    <path
       d="m 29.54143,48.934346 1.062846,-3.043048 c 0,0 -0.630624,-0.109264 -1.620611,-0.427476 -0.989993,-0.31821 -1.566554,-0.596969 -1.566554,-0.596969 l -0.291754,0.99208 c 0.05557,0.107387 0.20717,0.413052 -7e-6,3e-6 0.226473,0.413413 0.864561,1.193965 1.210947,1.675809 0.53159,0.813051 0.876945,1.019104 1.205138,1.399603 z" />
    <path
       d="m 28.080864,53.116145 1.460566,-4.181799 c -0.348872,-0.390356 -0.927859,-1.016016 -1.20514,-1.399598 -0.346387,-0.481844 -0.857127,-1.016669 -1.0836,-1.430082 -0.07876,-0.14377 -0.07176,-0.138349 -0.12734,-0.24573 l -1.29981,4.420293 c 0.02882,0.05394 0.02003,0.0422 0.05265,0.101649 0.226481,0.413411 0.737218,0.948241 1.083607,1.43008 0.342264,0.476099 0.851908,1.004398 1.11906,1.305192 z" />
    <path
       d="m 26.62333,57.289469 1.457534,-4.173324 c -0.267153,-0.300794 -0.776796,-0.829093 -1.11906,-1.305192 -0.346389,-0.481839 -0.857127,-1.016669 -1.083607,-1.43008 -0.03255,-0.05947 -0.02383,-0.0477 -0.05266,-0.101649 l -1.298582,4.415505 c 0.224915,0.408589 0.723073,0.923268 1.060353,1.392426 0.312652,0.434921 0.779409,0.909464 1.036017,1.202314 z" />
    <path
       d="m 25.166158,61.462607 1.457172,-4.173138 c -0.256608,-0.29285 -0.723365,-0.767393 -1.036017,-1.202314 -0.33728,-0.469158 -0.835438,-0.983837 -1.060353,-1.392426 l -1.294941,4.404178 c 0.217336,0.388128 0.674562,0.838478 0.980798,1.26446 0.283071,0.393759 0.710789,0.818474 0.953341,1.09924 z" />
    <path
       d="m 23.708706,65.635651 1.457452,-4.173044 c -0.242552,-0.280766 -0.67027,-0.705481 -0.953341,-1.09924 -0.306236,-0.425982 -0.763462,-0.876332 -0.980798,-1.26446 l -1.2953,4.404359 c 0.206411,0.361996 0.62641,0.753494 0.901605,1.136308 0.253425,0.352526 0.645072,0.731342 0.870382,0.996077 z" />
    <path
       d="m 22.251533,69.80879 1.457173,-4.173139 C 23.483396,65.370916 23.091749,64.9921 22.838324,64.639574 22.563129,64.25676 22.14313,63.865262 21.936719,63.503266 l -1.294944,4.404184 c 0.192384,0.33091 0.578008,0.668443 0.822145,1.008062 0.223853,0.31138 0.582308,0.64823 0.787613,0.893278 z" />
    <path
       d="m 21.536735,71.855296 0.714798,-2.046506 c -0.205305,-0.245048 -0.563765,-0.5819 -0.787611,-0.893283 -0.244144,-0.339616 -0.629768,-0.67715 -0.822144,-1.008062 l -0.990455,3.328653 c 0.01782,0.0048 -0.06036,-0.02095 0,0 l 1.885412,0.619198 c 0.0197,0.0064 -0.01909,-0.0073 3.7e-5,-1.32e-4 z" />
  </g>  
  <g
     id="solid-club-handle-3"
     class="outline">
    <path
       d="m 51.364813,35.14561 2.103933,2.441975 c 0,0 0.409938,-0.491504 1.180511,-1.189751 0.770574,-0.698255 1.300267,-1.058192 1.300267,-1.058192 l -0.71329,-0.748706 c -0.120786,-0.0056 -0.461298,-0.02711 2e-6,-8e-6 -0.471263,-0.01057 -1.466285,0.151749 -2.056767,0.210806 -0.969918,0.05384 -1.321042,0.249905 -1.814661,0.343879 z" />
    <path
       d="m 48.473551,31.789823 2.891262,3.355787 c 0.512494,-0.106955 1.343824,-0.295542 1.814657,-0.343883 0.590483,-0.05906 1.309025,-0.233959 1.780287,-0.223385 0.163888,0.0037 0.155696,0.007 0.276479,0.01259 l -3.178181,-3.335816 c -0.06113,-0.002 -0.04656,-0.0038 -0.114358,-0.0052 -0.471265,-0.01057 -1.18981,0.16433 -1.780289,0.223392 -0.583446,0.05836 -1.295788,0.235574 -1.68986,0.316538 z" />
    <path
       d="m 45.588114,28.440899 2.885437,3.348924 c 0.394072,-0.08096 1.106414,-0.258179 1.68986,-0.316539 0.590479,-0.05906 1.309024,-0.233959 1.780289,-0.223392 0.06778,0.0016 0.05322,0.0032 0.114358,0.0052 L 48.883409,27.92276 c -0.466305,-0.0095 -1.161109,0.164564 -1.736052,0.222079 -0.532979,0.0533 -1.177324,0.220256 -1.559243,0.29606 z" />
    <path
       d="m 42.702656,25.092381 2.885458,3.348518 c 0.381919,-0.0758 1.026264,-0.242756 1.559243,-0.29606 0.574943,-0.05752 1.269747,-0.231592 1.736052,-0.222079 L 45.71675,24.599218 c -0.444797,-0.0058 -1.063424,0.164949 -1.585454,0.217166 -0.48254,0.04827 -1.064213,0.206324 -1.42864,0.275997 z" />
    <path
       d="m 39.81742,21.743668 2.885236,3.348713 c 0.364427,-0.06967 0.9461,-0.22773 1.42864,-0.275997 0.52203,-0.05222 1.140657,-0.223011 1.585454,-0.217166 l -3.166637,-3.323943 c -0.416703,-0.0022 -0.96575,0.165741 -1.434874,0.212659 -0.432009,0.04321 -0.955897,0.192979 -1.297819,0.255734 z" />
    <path
       d="m 36.931962,18.395151 2.885458,3.348517 c 0.341922,-0.06275 0.86581,-0.212524 1.297819,-0.255734 0.469124,-0.04692 1.018171,-0.214899 1.434874,-0.212659 L 39.38345,17.951729 c -0.382768,0.0012 -0.867893,0.166348 -1.284079,0.207967 -0.381591,0.03817 -0.852539,0.180179 -1.167409,0.235455 z" />
    <path
       d="m 35.517035,16.752864 1.414927,1.642287 c 0.31487,-0.05528 0.785823,-0.197285 1.167412,-0.23545 0.416188,-0.04163 0.901313,-0.20682 1.284079,-0.207967 l -2.38747,-2.522085 c -0.01305,0.01304 0.04832,-0.0418 0,0 l -1.478948,1.323215 c -0.01538,0.01387 0.0159,-0.01286 9.6e-5,9.8e-5 z" />
  </g>

  <g
     id="solid-club-handle-fill-1"
     class="solid-club-handle-1">
    <path
       d="m 50.049025,64.458557 c -0.06772,-0.58286 -0.293164,-1.672738 -0.490264,-2.370155 -0.06495,-0.229805 -0.114326,-0.421485 -0.109733,-0.425958 0.02068,-0.02013 2.68489,-0.515719 2.69862,-0.501988 0.05488,0.05488 -0.835653,2.323186 -1.187284,3.024188 l -0.125953,0.2511 -0.349512,0.08478 c -0.192232,0.04663 -0.364466,0.0903 -0.382743,0.09704 -0.02097,0.0077 -0.04058,-0.05096 -0.05313,-0.159012 z" />
    <path
       d="m 51.389047,64.075023 c 0.225977,-0.50803 0.747537,-1.860405 0.935988,-2.426962 l 0.191502,-0.57573 1.989,-0.376606 c 1.093949,-0.207133 1.993347,-0.372259 1.99866,-0.366946 0.01954,0.01954 -0.310755,0.963385 -0.467156,1.334919 -0.08873,0.210771 -0.237529,0.582201 -0.33067,0.825399 -0.171567,0.447971 -0.344245,0.821966 -0.393594,0.852465 -0.01487,0.0092 -0.907299,0.229623 -1.983167,0.489846 -1.075868,0.260222 -1.978583,0.479854 -2.006033,0.488069 -0.03946,0.01181 -0.02575,-0.03938 0.06547,-0.244454 z" />
    <path
       d="m 55.761341,63.197547 c 0.131921,-0.343781 0.362589,-0.923087 0.528582,-1.3275 0.113132,-0.275624 0.289875,-0.753176 0.392762,-1.061227 l 0.187067,-0.560093 1.979794,-0.376776 c 1.088886,-0.207226 1.984756,-0.371811 1.990824,-0.365745 0.01875,0.01875 -0.221465,0.74294 -0.346758,1.045398 -0.06532,0.157682 -0.221915,0.552001 -0.347986,0.876265 -0.266267,0.684852 -0.335672,0.830025 -0.407107,0.851534 -0.02864,0.0086 -0.901064,0.220738 -1.938709,0.471362 -1.037645,0.250624 -1.925288,0.465396 -1.972541,0.477271 -0.07428,0.01867 -0.08321,0.01454 -0.06593,-0.03049 z" />
    <path
       d="m 60.216683,62.098506 c 0.01138,-0.02837 0.09747,-0.250567 0.191322,-0.493765 0.09385,-0.243198 0.24376,-0.621261 0.333126,-0.840139 0.08937,-0.218878 0.231491,-0.610468 0.315831,-0.870197 l 0.153345,-0.472239 1.977537,-0.374846 c 1.087646,-0.206166 1.983777,-0.368609 1.991402,-0.360983 0.02061,0.02061 -0.187633,0.654418 -0.322639,0.981947 -0.06476,0.157112 -0.204697,0.517801 -0.31097,0.801532 -0.106274,0.283731 -0.216496,0.561332 -0.244938,0.616891 l -0.05171,0.101016 -1.985787,0.481185 c -1.092183,0.264653 -2.004103,0.481186 -2.02649,0.481186 -0.02699,0 -0.03374,-0.01738 -0.02003,-0.05159 z" />
    <path
       d="m 64.653573,61.081992 c 0,-0.02611 0.358085,-0.975957 0.458606,-1.216486 0.06098,-0.145919 0.185039,-0.490589 0.275683,-0.765933 l 0.164807,-0.500627 1.960323,-0.37488 c 1.078178,-0.206185 1.976292,-0.37223 1.995808,-0.368991 0.04823,0.008 -0.208861,0.752347 -0.684847,1.982794 l -0.103344,0.26715 -1.981931,0.478799 c -1.090061,0.26334 -2.005144,0.485599 -2.033518,0.49391 -0.02837,0.0083 -0.05159,0.01024 -0.05159,0.0043 z" />
    <path
       d="m 69.119314,59.946572 c 0.01144,-0.02837 0.07771,-0.210772 0.147282,-0.40533 0.06957,-0.194558 0.162734,-0.439967 0.20703,-0.545353 0.0443,-0.105386 0.156731,-0.423441 0.249857,-0.70679 l 0.169318,-0.515179 1.984288,-0.376212 c 1.091358,-0.206917 1.989816,-0.370683 1.996575,-0.363926 0.02149,0.02149 -0.651356,1.924465 -0.696355,1.969465 -0.02689,0.02689 -3.94783,0.991869 -4.038781,0.993983 -0.02647,5.9e-4 -0.03297,-0.01653 -0.01921,-0.05066 z" />
    <path
       d="m 73.571978,58.873515 c 0.01193,-0.03808 0.08082,-0.235054 0.153082,-0.437719 0.07226,-0.202665 0.215639,-0.61389 0.318622,-0.913835 0.102984,-0.299944 0.204539,-0.555274 0.22568,-0.567399 0.06119,-0.0351 1.765307,-0.348447 1.795044,-0.330068 0.01476,0.0091 0.02709,0.04566 0.02739,0.08118 3.54e-4,0.03552 0.07297,0.395403 0.161492,0.799734 0.08852,0.40433 0.157369,0.738719 0.153004,0.743085 -0.0044,0.0044 -0.624233,0.154848 -1.377482,0.334407 -0.75325,0.179557 -1.394069,0.33398 -1.424043,0.343162 -0.04587,0.01405 -0.05106,0.0057 -0.03279,-0.05255 z" />
  </g>
  <g
     id="solid-club-handle-fill-2"
     class="solid-club-handle-2">
    <path
       d="M 29.055094,48.154495 C 28.678422,47.723851 27.67415,46.421112 27.406642,46.016126 l -0.113171,-0.171333 0.09805,-0.344542 c 0.05393,-0.189497 0.106096,-0.359942 0.115934,-0.378766 0.01249,-0.02389 0.09356,-0.0034 0.268455,0.06778 0.679753,0.276723 1.902965,0.666104 2.440837,0.776984 0.110462,0.02277 0.180803,0.05146 0.173578,0.07079 -0.0067,0.01788 -0.208341,0.596282 -0.448126,1.285343 -0.239787,0.689061 -0.445326,1.263532 -0.456753,1.276603 -0.01142,0.01307 -0.205084,-0.186951 -0.430349,-0.444491 z" />
    <path
       d="m 27.848555,52.623504 c -0.241008,-0.257945 -0.583806,-0.667305 -0.810411,-0.967774 -0.103935,-0.137812 -0.322643,-0.416385 -0.486019,-0.61905 -0.327053,-0.405702 -0.544276,-0.712837 -0.546139,-0.772194 -7.07e-4,-0.02116 0.260035,-0.929106 0.579331,-2.017666 l 0.580537,-1.979201 0.10415,0.151531 c 0.05728,0.08334 0.283406,0.377041 0.502497,0.652665 0.219091,0.275625 0.493,0.620524 0.608685,0.766443 0.115686,0.145919 0.38466,0.46001 0.597722,0.697982 l 0.387383,0.432675 -0.657714,1.881391 c -0.361741,1.034765 -0.663671,1.899388 -0.670955,1.921384 -0.0084,0.02549 -0.077,-0.02824 -0.189067,-0.148186 z" />
    <path
       d="m 26.508329,56.932039 c -0.02432,-0.02901 -0.165603,-0.190033 -0.313964,-0.35783 -0.14836,-0.167797 -0.36581,-0.431107 -0.483222,-0.585132 -0.117412,-0.154026 -0.321861,-0.4127 -0.454329,-0.574832 -0.360848,-0.441649 -0.546676,-0.696083 -0.546676,-0.748502 0,-0.02583 0.261681,-0.936999 0.581514,-2.024821 l 0.581513,-1.97786 0.08598,0.120483 c 0.04729,0.06627 0.234211,0.306197 0.415381,0.533182 0.181168,0.226984 0.438137,0.553274 0.57104,0.725089 0.132904,0.171814 0.400629,0.489664 0.594947,0.706331 0.194317,0.216669 0.353304,0.403123 0.353304,0.414342 0,0.02703 -1.297704,3.74545 -1.322243,3.788729 -0.01298,0.0229 -0.03308,0.01681 -0.06325,-0.01918 z" />
    <path
       d="m 24.887623,60.92064 c -0.117155,-0.126353 -0.30119,-0.341366 -0.408966,-0.477805 -0.107777,-0.136438 -0.321315,-0.401745 -0.474531,-0.589571 -0.426414,-0.522739 -0.591045,-0.741662 -0.591045,-0.785963 0,-0.03106 1.040322,-3.602931 1.144122,-3.928265 0.01966,-0.06162 0.06974,-0.0089 0.476308,0.501135 0.760383,0.953945 0.872084,1.089585 1.149129,1.395394 0.173553,0.191574 0.260976,0.310268 0.249691,0.339004 -0.0096,0.02432 -0.308973,0.879707 -0.665381,1.900861 -0.356409,1.021154 -0.652133,1.860762 -0.657167,1.865795 -0.005,0.005 -0.105005,-0.09423 -0.22216,-0.220585 z" />
    <path
       d="m 23.384317,65.043292 c -0.131646,-0.143554 -0.321632,-0.367188 -0.42219,-0.496965 -0.100559,-0.129777 -0.325753,-0.405918 -0.500432,-0.613646 -0.174678,-0.20773 -0.32401,-0.405269 -0.33185,-0.43898 -0.0078,-0.03371 0.248691,-0.953775 0.57007,-2.04459 l 0.584326,-1.983299 0.322358,0.390438 c 0.177297,0.21474 0.38754,0.477121 0.467209,0.583068 0.164919,0.219319 0.378659,0.470276 0.687917,0.807699 0.117546,0.128252 0.21372,0.246666 0.21372,0.263145 0,0.05661 -1.311801,3.793513 -1.331784,3.793825 -0.01099,2.36e-4 -0.127698,-0.117142 -0.259344,-0.260695 z" />
    <path
       d="m 21.99315,69.289932 c -0.104651,-0.110937 -0.290157,-0.32681 -0.412235,-0.479718 -0.122077,-0.152907 -0.300344,-0.364444 -0.396147,-0.47008 -0.213262,-0.235149 -0.365698,-0.426977 -0.3661,-0.460704 -7.07e-4,-0.06314 1.166372,-3.989447 1.183926,-3.982831 0.02908,0.01095 0.549406,0.624707 0.71859,0.847607 0.07999,0.105386 0.265073,0.322593 0.411297,0.482683 0.146223,0.16009 0.295546,0.327787 0.331828,0.372662 l 0.06597,0.08159 -0.662226,1.894048 c -0.364225,1.041727 -0.667266,1.899087 -0.673424,1.905247 -0.0062,0.0062 -0.09682,-0.07957 -0.201476,-0.190504 z" />
    <path
       d="m 20.863187,71.403111 c -0.324264,-0.107512 -0.679112,-0.219647 -0.788551,-0.249189 -0.11604,-0.03132 -0.198981,-0.06968 -0.198981,-0.09203 0,-0.05589 0.797406,-2.732068 0.821707,-2.757731 0.02089,-0.02206 0.388993,0.384272 0.68729,0.758651 0.09043,0.113492 0.278715,0.33133 0.418415,0.484085 0.139701,0.152754 0.254001,0.293992 0.254001,0.313861 0,0.03358 -0.586414,1.734701 -0.598732,1.736852 -0.0031,5.89e-4 -0.270885,-0.08699 -0.595149,-0.194501 z" />
  </g>
  <g
     id="solid-club-handle-fill-3"
     class="solid-club-handle-3">
    <path
       d="m 36.401685,17.543763 c -0.322448,-0.375223 -0.587755,-0.697512 -0.589571,-0.716197 -0.0018,-0.01869 0.222209,-0.237419 0.497833,-0.486075 0.275624,-0.248657 0.549121,-0.497512 0.607768,-0.553011 l 0.106633,-0.100906 0.998812,1.052187 c 0.549348,0.578703 1.002312,1.061091 1.006588,1.071972 0.008,0.02041 -0.663546,0.155601 -1.054263,0.212226 -0.121599,0.01762 -0.391645,0.07053 -0.600101,0.117569 -0.208457,0.04704 -0.380906,0.08529 -0.383221,0.08499 -0.0023,-2.36e-4 -0.268031,-0.307534 -0.590478,-0.682758 z" />
    <path
       d="m 38.550199,20.034405 c -0.936623,-1.086209 -1.302533,-1.530078 -1.274345,-1.545854 0.04376,-0.02449 0.493502,-0.114281 1.40312,-0.280135 0.392058,-0.07149 0.614916,-0.100022 0.642405,-0.08226 0.07061,0.04562 2.871557,2.9976 2.857543,3.011616 -0.0194,0.0194 -0.720381,0.146442 -1.097899,0.198975 -0.180793,0.02516 -0.509519,0.08526 -0.730503,0.133561 -0.220985,0.0483 -0.420836,0.08782 -0.444112,0.08782 -0.02328,0 -0.633572,-0.685675 -1.356209,-1.523725 z" />
    <path
       d="m 41.449444,23.39979 c -0.719007,-0.835392 -1.310984,-1.529655 -1.315506,-1.542807 -0.0094,-0.02739 0.629805,-0.165743 0.981013,-0.212321 0.129705,-0.0172 0.450938,-0.07107 0.71385,-0.119701 0.262911,-0.04863 0.523367,-0.08428 0.578789,-0.07922 0.09076,0.0083 0.242986,0.158553 1.532454,1.512615 l 1.431686,1.503407 -0.389156,0.06601 c -0.214034,0.03631 -0.581502,0.09367 -0.816593,0.127476 -0.235092,0.03381 -0.645952,0.106907 -0.913024,0.162447 -0.267071,0.05554 -0.487979,0.100983 -0.490906,0.100983 -0.0029,0 -0.593601,-0.683503 -1.312607,-1.518895 z" />
    <path
       d="m 44.320795,26.734307 c -0.728936,-0.844567 -1.322887,-1.538861 -1.319889,-1.542877 0.0143,-0.01916 0.857131,-0.184624 1.091378,-0.214256 0.145919,-0.01846 0.495034,-0.07233 0.77581,-0.119722 0.280776,-0.04739 0.574992,-0.08616 0.653814,-0.08616 h 0.143312 l 1.428222,1.496037 c 0.785522,0.82282 1.423785,1.500976 1.41836,1.507014 -0.01332,0.01483 -0.776482,0.135269 -1.339009,0.211322 -0.251305,0.03398 -0.69761,0.111824 -0.991788,0.172996 l -0.534872,0.111221 z" />
    <path
       d="m 47.223426,30.104975 c -0.709851,-0.825891 -1.297092,-1.518435 -1.304979,-1.538987 -0.01731,-0.04512 0.718178,-0.2015 1.283824,-0.27297 0.202665,-0.02561 0.567462,-0.07814 0.81066,-0.11673 0.243198,-0.0386 0.521938,-0.07859 0.619423,-0.08887 l 0.177245,-0.0187 1.44103,1.512858 1.441031,1.512858 -0.159088,0.02328 c -0.0875,0.0128 -0.371331,0.05562 -0.630743,0.09516 -0.259411,0.03954 -0.631008,0.0921 -0.825772,0.116807 -0.372883,0.04731 -0.762524,0.117656 -1.215305,0.21942 -0.1498,0.03367 -0.289087,0.06038 -0.309525,0.05936 -0.02044,-0.0011 -0.617948,-0.677589 -1.327801,-1.503481 z" />
    <path
       d="m 50.095694,33.434091 c -0.730553,-0.847879 -1.325503,-1.544371 -1.322113,-1.547762 0.02081,-0.02081 1.086114,-0.22083 1.317588,-0.247386 0.154026,-0.01767 0.532088,-0.07206 0.840139,-0.120867 0.308051,-0.04881 0.674231,-0.09113 0.813733,-0.09406 l 0.253639,-0.0053 1.43316,1.503406 1.43316,1.503406 -0.24235,0.01974 c -0.133294,0.01086 -0.454597,0.05323 -0.714009,0.09417 -0.259411,0.04093 -0.630841,0.09578 -0.825399,0.121888 -0.284875,0.03822 -1.312801,0.230883 -1.596078,0.299146 -0.05346,0.01288 -0.267851,-0.222296 -1.39147,-1.52637 z" />
    <path
       d="m 52.561098,36.297405 c -0.496023,-0.575568 -0.898533,-1.049994 -0.894467,-1.054278 0.0041,-0.0043 0.269612,-0.0607 0.590102,-0.125378 0.493252,-0.09954 1.97466,-0.30021 2.698839,-0.36559 l 0.192053,-0.01734 0.28622,0.287528 0.286219,0.287527 -0.284368,0.221089 c -0.46703,0.363105 -0.99703,0.836489 -1.499328,1.339166 l -0.473409,0.473765 z" />
  </g>

  <rect
     id="knob-1"
     class="outline knob-1"
     width="1.8511913"
     height="3.2395918"
     x="94.220352"
     y="43.07724"
     rx="0.92559564"
     ry="0.92559755"
     transform="rotate(4.5120428)" />
  <rect
     id="knob-2"
     class="outline knob-2"
     width="1.8511913"
     height="3.2395918"
     x="60.778847"
     y="-65.619209"
     rx="0.92559564"
     ry="0.92559755"
     transform="rotate(124.51204)"
     />
   <rect
     id="knob-3"
     class="outline knob-3"
     width="1.8511913"
     height="3.2395921"
     x="-16.634298"
     y="17.690197"
     ry="0.92559755"
     rx="0.92559564"
     transform="rotate(-115.48796)" />
  
  <path
     id="solid-cap-1"
     class="outline solid-cap-1"
     d="m 9.4728161,69.595379 c -0.04436,0.40475 -0.0075,1.18569 0.12864,1.8164 0.136145,0.63069 0.4247189,1.3573 0.6320859,1.70772 0.278891,0.0715 1.088395,0.16023 1.088395,0.16023 0,0 -0.37038,-1.10558 -0.58773,-2.11247 -0.217351,-1.00689 -0.336009,-2.16681 -0.336009,-2.16681 0,0 -0.7008289,0.41473 -0.9253819,0.59493 z" />
  <path
     id="solid-cap-2"
     d="M 43.506151,7.4351603 C 43.177801,7.1943713 42.483058,6.8358153 41.868782,6.638369 41.254506,6.440924 40.480962,6.327533 40.07381,6.331912 c -0.201382,0.205765 -0.682963,0.8624613 -0.682963,0.8624613 0,0 1.142654,0.232032 2.123322,0.547246 0.980668,0.315214 2.044516,0.792413 2.044516,0.792413 0,0 -0.0088,-0.814305 -0.05253,-1.098872 z"
     class="outline solid-cap-2" />
  <path
     id="solid-cap-3"
     d="m 80.321812,67.988999 c 0.372701,-0.16396 1.030593,-0.58635 1.508724,-1.0196 0.47813,-0.43326 0.963102,-1.04648 1.162882,-1.40127 -0.07753,-0.27728 -0.40543,-1.02269 -0.40543,-1.02269 0,0 -0.772271,0.87355 -1.535584,1.56523 -0.763322,0.69167 -1.708513,1.3744 -1.708513,1.3744 0,0 0.709589,0.39956 0.977921,0.50393 z"
     class="outline solid-cap-3" />
  


  <path
     id="solid-club-body-1"
     class="outline solid-club-1"
     d="m 47.663074,61.614969 c 0,0 -15.523822,-1.51215 -21.332137,-0.25836 -5.808307,1.2538 -14.073301,5.69734 -15.932739,7.64384 0.105558,1.193 0.527773,3.14895 0.92374,4.27928 2.491569,0.98191 12.021754,2.39944 17.830065,1.14563 5.808311,-1.2538 19.326044,-9.03497 19.326044,-9.03497 0,0 0.0036,-0.68763 -0.26227,-1.91905 -0.265823,-1.23141 -0.552703,-1.85637 -0.552703,-1.85637" />
  <path
     id="solid-club-body-2"
     class="outline solid-club-2"
     d="m 31.322261,44.4991 c 0,0 9.07147,-12.687948 10.889811,-18.344996 1.818327,-5.657042 2.102608,-15.036507 1.346613,-17.6200717 -1.085948,-0.505085 -2.990962,-1.117411 -4.167838,-1.339659 -2.096144,1.666808 -8.088849,9.2114247 -9.907181,14.8684707 -1.818328,5.657047 -1.838507,21.254334 -1.838507,21.254334 0,0 0.593736,0.346889 1.793082,0.732385 1.199347,0.3855 1.88402,0.449537 1.88402,0.449537" />
  <path
     id="solid-club-body-3"
     class="outline solid-club-3"
     d="m 54.31544,38.905475 c 0,0 6.45235,14.200094 10.442326,18.603354 3.98998,4.40324 11.970698,9.33916 14.586125,9.97624 0.98039,-0.68793 2.463185,-2.03155 3.244097,-2.93963 -0.395425,-2.64872 -3.932905,-11.61086 -7.92288,-16.01411 -3.989985,-4.403241 -17.487542,-12.219355 -17.487542,-12.219355 0,0 -0.597282,0.340743 -1.530806,1.186659 -0.933524,0.845912 -1.33132,1.406842 -1.33132,1.406842" />




  <g
     id="hollow-club-body-fill-1"
     class="hollow-club-1">
    <path
       d="m 31.404975,44.669827 c 0.03369,-0.08453 0.06277,-0.134424 0.143781,-0.246664 0.177478,-0.245888 0.743506,-1.056775 1.175664,-1.684233 0.22987,-0.33376 0.433893,-0.628158 0.453381,-0.65422 0.03448,-0.04608 0.04093,-0.04886 0.238131,-0.101526 1.856111,-0.495819 3.603161,-0.859714 4.673948,-0.973535 0.721682,-0.07672 1.054915,-0.06756 1.625693,0.04471 0.329671,0.06484 1.165699,0.262124 1.172732,0.276737 9.8e-4,0.0022 -0.02331,0.06038 -0.05412,0.129371 -0.07581,0.169761 -0.32053,0.74636 -0.542456,1.278099 -0.100413,0.240581 -0.192696,0.458976 -0.205077,0.485315 l -0.02252,0.04788 -0.193449,-0.0542 c -0.518362,-0.145228 -0.809372,-0.208863 -0.948849,-0.2075 -0.598197,0.0058 -3.178026,0.635302 -6.637437,1.619457 -0.521039,0.148222 -0.951519,0.269954 -0.956627,0.270507 -0.01034,0.0013 0.01413,-0.07194 0.07721,-0.23021 z" />
    <path
       d="m 25.861617,49.64608 c -0.0059,0.0048 -0.739731,-0.408612 -1.086821,-0.612136 -0.551874,-0.323612 -0.991788,-0.602328 -1.32203,-0.837605 l -0.171304,-0.122044 -0.0031,-0.09209 c -0.02773,-0.820064 -0.005,-1.322536 0.08805,-1.945596 0.02593,-0.173629 0.119989,-0.692889 0.13265,-0.732277 0.0037,-0.01159 0.103891,-0.06888 0.238013,-0.136122 l 5.3e-5,1.3e-5 c 0.461385,-0.231253 0.871112,-0.387942 2.463587,-0.942156 0.715478,-0.249004 1.165972,-0.396713 1.175579,-0.385447 0.0036,0.0045 1.7e-4,0.03944 -0.0077,0.07812 -0.02363,0.115974 -0.05661,0.413448 -0.07074,0.638007 -0.0073,0.116005 -0.01554,0.231703 -0.0183,0.257115 -0.0028,0.0254 -0.0851,0.313642 -0.18297,0.64052 -0.09787,0.326874 -0.194981,0.656083 -0.215809,0.731573 l -0.03787,0.137254 -0.243064,0.07726 c -0.400584,0.127397 -0.717121,0.266661 -0.795422,0.350026 -0.01724,0.01836 -0.03832,0.05507 -0.04685,0.0816 -0.04322,0.134455 0.0706,0.241971 0.553086,0.52246 l 0.198279,0.115266 0.277532,0.150035 c 0.1733,0.103808 1.375479,0.713823 2.227757,1.130421 l 0.635593,0.311954 c 0.0025,-0.0013 0.124797,0.05521 0.271807,0.125992 2.151294,1.035781 4.955376,2.300675 6.494483,2.929599 0.134973,0.05515 0.24759,0.104534 0.250263,0.10974 0.0069,0.01333 -0.641032,1.808982 -0.702191,1.946255 l -0.03011,0.0676 -0.14539,-0.04976 c -1.57647,-0.539627 -4.159716,-1.648843 -6.620493,-2.842753 l -0.276638,-0.134219 -0.251951,-0.127129 c -0.0032,0.0027 -0.711685,-0.35229 -1.112033,-0.557236 -0.625514,-0.320215 -1.394605,-0.72848 -1.403009,-0.744773 z" />
    <path
       d="m 47.469983,53.555645 c 0.579941,-0.514077 1.795372,-1.612362 2.492674,-2.252423 0.212397,-0.194967 0.393009,-0.353943 0.401357,-0.353293 0.01595,8.92e-4 1.225823,-0.206915 2.030074,-0.34929 2.538702,-0.449395 4.32891,-0.806966 4.916735,-0.982052 0.253438,-0.07547 0.324178,-0.120212 0.344393,-0.217745 0.02028,-0.09794 -0.03971,-0.172488 -0.209893,-0.260034 -0.402751,-0.207428 -1.803884,-0.74078 -3.561839,-1.355835 -0.155763,-0.05467 -0.285213,-0.101032 -0.287562,-0.103371 -0.0027,-0.0022 0.01453,-0.0324 0.03743,-0.06679 0.06681,-0.100184 0.207326,-0.344014 0.287563,-0.499068 0.152651,-0.294986 0.407983,-0.870574 0.512843,-1.156064 0.01529,-0.04113 0.03186,-0.07455 0.03712,-0.07413 0.0193,0.0018 0.492374,0.121269 0.824663,0.208734 1.27916,0.3367 2.584195,0.73131 4.058679,1.22724 0.511341,0.171989 1.142587,0.391927 1.150092,0.400715 0.0067,0.0078 0.01408,0.3101 0.01266,0.51841 -0.0018,0.271906 -0.116433,1.723519 -0.169663,2.149993 -0.05188,0.415422 -0.144011,1.076648 -0.150843,1.082477 -0.0031,0.0027 -0.150428,0.03347 -0.32747,0.06919 -3.633234,0.726836 -7.382625,1.377678 -10.414619,1.807829 -0.861648,0.122244 -1.990536,0.270783 -2.032678,0.267453 -0.0135,-8.91e-4 8.92e-4,-0.01996 0.0483,-0.06184 z" />
    <path
       d="m 43.60304,42.052489 c 0.112825,0.03498 0.313263,0.0969 0.445395,0.137633 1.541236,0.474819 4.585879,1.4837 7.327927,2.428196 0.30488,0.10502 0.586127,0.201394 0.624998,0.214162 l 0.07068,0.02322 -0.10338,0.316855 c -0.125751,0.384863 -0.238744,0.691076 -0.320327,0.867762 -0.05546,0.120057 -0.07182,0.14394 -0.17932,0.261768 -0.149684,0.163967 -0.494647,0.510271 -0.519006,0.520998 -0.01012,0.0047 -0.567205,-0.17608 -1.238017,-0.401 -2.350206,-0.788849 -4.92094,-1.62763 -6.809811,-2.221936 -0.195052,-0.06116 -0.355545,-0.118372 -0.356684,-0.126968 -0.0037,-0.02389 0.807891,-2.01925 0.839852,-2.065732 0.0086,-0.01239 0.07917,0.0022 0.217764,0.04525 z" />
    <path
       d="m 39.660307,52.553681 c 1.208372,-0.153454 3.740415,-0.526476 5.561013,-0.819488 0.247778,-0.03989 0.451323,-0.06815 0.452269,-0.06307 0.002,0.01101 -0.843898,0.767319 -2.170392,1.940541 l -0.91409,0.808472 -0.142215,0.02273 c -0.07822,0.01239 -0.42321,0.05989 -0.766641,0.105251 -1.350522,0.178933 -2.31107,0.277949 -2.968621,0.305866 -0.217701,0.0094 -0.24825,0.0068 -0.242471,-0.01961 0.01442,-0.06584 0.791104,-2.183645 0.811924,-2.213919 0.0077,-0.01119 0.178367,-0.041 0.379223,-0.06667 z" />
  </g>

  <g
     id="hollow-club-body-fill-2"
     class="hollow-club-2">
    <path
       d="m 54.126235,38.891739 c 0.05635,0.07145 0.08503,0.121571 0.141729,0.247854 0.124205,0.276643 0.543438,1.172281 0.870757,1.860269 0.17411,0.365954 0.327052,0.689841 0.339874,0.71975 0.02268,0.0529 0.02184,0.05988 -0.03115,0.25699 -0.498662,1.855344 -1.057043,3.550287 -1.493861,4.534527 -0.294399,0.663361 -0.46895,0.947362 -0.851563,1.385539 -0.220989,0.253082 -0.809853,0.878463 -0.82603,0.877246 -0.0027,4e-5 -0.04065,-0.05038 -0.08498,-0.111562 -0.109111,-0.15053 -0.486104,-0.650761 -0.835635,-1.108828 -0.158147,-0.207246 -0.301141,-0.396366 -0.317764,-0.420258 l -0.03022,-0.04345 0.143663,-0.140432 c 0.384948,-0.376301 0.585562,-0.596507 0.654118,-0.717976 0.294028,-0.520985 1.038828,-3.069906 1.91623,-6.557917 0.132148,-0.525349 0.241972,-0.95902 0.244048,-0.963718 0.004,-0.0095 0.05526,0.0482 0.160759,0.181972 z" />
    <path
       d="m 52.588356,31.602925 c -8.91e-4,-0.0075 0.72373,-0.436319 1.073537,-0.635145 0.556188,-0.316134 1.017522,-0.557748 1.386399,-0.72611 l 0.191353,-0.0873 0.08131,0.04336 c 0.72406,0.386022 1.147847,0.656948 1.640911,1.049053 0.137406,0.109267 0.540065,0.450352 0.567847,0.481014 0.0082,0.009 0.0078,0.124419 -0.0013,0.274188 l -4.4e-5,3.5e-5 c -0.03044,0.515197 -0.09958,0.948378 -0.415859,2.604607 -0.142094,0.744127 -0.239422,1.208121 -0.253982,1.210804 -0.0055,8.92e-4 -0.03418,-0.01956 -0.0638,-0.04575 -0.08862,-0.07845 -0.329748,-0.255747 -0.517162,-0.380269 -0.09681,-0.06432 -0.192895,-0.129299 -0.213511,-0.144402 -0.02063,-0.01511 -0.229074,-0.230522 -0.463223,-0.478715 -0.234146,-0.248197 -0.470697,-0.496897 -0.525661,-0.552685 l -0.09993,-0.101423 0.0546,-0.249138 c 0.08999,-0.410604 0.127632,-0.754373 0.09459,-0.863867 -0.0072,-0.02416 -0.02852,-0.06073 -0.04724,-0.08138 -0.09483,-0.10465 -0.244846,-0.05984 -0.729006,0.217758 l -0.198965,0.114084 -0.268698,0.165331 c -0.176548,0.09817 -1.30593,0.834289 -2.09285,1.364081 l -0.587955,0.394467 c 1.43e-4,0.0031 -0.110216,0.08047 -0.245019,0.172395 -1.972656,1.345184 -4.470128,3.14114 -5.784344,4.159585 -0.115252,0.08932 -0.214331,0.162153 -0.220168,0.161868 -0.01495,-8.91e-4 -1.246115,-1.459648 -1.334417,-1.581246 l -0.0435,-0.05988 0.115791,-0.101027 c 1.255564,-1.09545 3.507795,-2.777999 5.772149,-4.312139 l 0.254552,-0.172466 0.23607,-0.154635 c -8.91e-4,-0.0045 0.660932,-0.440192 1.038598,-0.684431 0.590067,-0.381601 1.328182,-0.843519 1.346499,-0.842654 z" />
    <path
       d="m 38.398382,48.361532 c 0.155234,0.759289 0.498661,2.361026 0.704316,3.284933 0.06264,0.28143 0.11003,0.517331 0.105279,0.524238 -0.0089,0.01333 -0.433715,1.165054 -0.712542,1.932739 -0.880161,2.423276 -1.4656,4.152423 -1.607883,4.749041 -0.06134,0.257226 -0.05798,0.340854 0.01637,0.407129 0.07467,0.06654 0.169281,0.05171 0.330144,-0.05175 0.381015,-0.245082 1.543477,-1.191824 2.955107,-2.406729 0.125224,-0.10756 0.230102,-0.196487 0.233304,-0.197352 0.0032,-8.91e-4 0.02081,0.02875 0.03913,0.0658 0.05336,0.107948 0.194261,0.351555 0.288425,0.498569 0.179142,0.279687 0.549945,0.788613 0.744758,1.02217 0.028,0.03378 0.04864,0.06484 0.04564,0.06921 -0.01098,0.01591 -0.35121,0.36578 -0.593102,0.609814 -0.931169,0.939438 -1.925429,1.872325 -3.092162,2.9013 -0.404614,0.35684 -0.910711,0.793551 -0.922077,0.795655 -0.01017,0.0018 -0.275597,-0.142848 -0.455282,-0.248242 -0.234546,-0.137571 -1.434395,-0.96259 -1.777117,-1.221928 -0.333829,-0.252636 -0.860401,-0.66304 -0.86203,-0.671868 -8.47e-4,-0.004 0.04604,-0.147072 0.103911,-0.318166 1.18716,-3.509888 2.498212,-7.082379 3.641685,-9.923238 0.324956,-0.807327 0.760765,-1.859249 0.784716,-1.894078 0.0079,-0.01114 0.01676,0.01087 0.02941,0.07274 z" />
    <path
       d="m 50.29388,50.764241 c -0.08671,0.08022 -0.240554,0.222843 -0.341892,0.316908 -1.181824,1.097345 -3.577858,3.22964 -5.766846,5.132074 -0.243388,0.211528 -0.46747,0.406901 -0.497969,0.434184 l -0.05546,0.04961 L 43.409,56.44906 c -0.27043,-0.301337 -0.479115,-0.552297 -0.591342,-0.711295 -0.07624,-0.108055 -0.08874,-0.134171 -0.137036,-0.286176 -0.06714,-0.211617 -0.194593,-0.683509 -0.191693,-0.709972 0.0011,-0.0111 0.436093,-0.403175 0.966288,-0.871658 1.858269,-1.640915 3.870039,-3.447839 5.329156,-4.786504 0.150495,-0.138332 0.280285,-0.248718 0.288298,-0.245411 0.02246,0.009 1.344779,1.70928 1.369058,1.760205 0.0064,0.01364 -0.04162,0.06739 -0.148075,0.165959 z" />
    <path
       d="m 43.170941,42.09914 c -0.471286,1.123206 -1.41426,3.502535 -2.070804,5.225724 -0.08936,0.234524 -0.166627,0.424937 -0.17152,0.423212 -0.01053,-0.004 -0.242571,-1.114502 -0.595371,-2.849888 l -0.243107,-1.195857 0.05145,-0.134523 c 0.02851,-0.0739 0.159736,-0.396454 0.292163,-0.716554 0.520304,-1.259056 0.914827,-2.140425 1.219426,-2.723834 0.100684,-0.193242 0.118225,-0.218404 0.138231,-0.200172 0.04983,0.0454 1.49554,1.776935 1.511347,1.810101 0.0056,0.01226 -0.0535,0.175028 -0.131848,0.36176 z"
    />
  </g>
  <g
     id="hollow-club-body-fill-3"
     class="hollow-club-3">
    <path
       d="m 47.769573,61.457972 c -0.09006,0.01306 -0.147808,0.01284 -0.285512,-0.0013 -0.301685,-0.03075 -1.286948,-0.115511 -2.046423,-0.17604 -0.403979,-0.03218 -0.760944,-0.06168 -0.79326,-0.06553 -0.05716,-0.0068 -0.06278,-0.01105 -0.206989,-0.155464 -1.357446,-1.35953 -2.546114,-2.69057 -3.180087,-3.560984 -0.427282,-0.58664 -0.585962,-0.879808 -0.774126,-1.430247 -0.108681,-0.317925 -0.355843,-1.140587 -0.346704,-1.153988 0.0014,-0.0018 0.06398,-0.0098 0.139101,-0.01783 0.184922,-0.01921 0.806629,-0.09559 1.378091,-0.169266 0.258561,-0.03329 0.493838,-0.06259 0.522836,-0.06507 l 0.05273,-0.0045 0.04978,0.194633 c 0.133438,0.521525 0.223804,0.80537 0.294728,0.925475 0.304168,0.51513 2.1392,2.434601 4.721205,4.938461 0.388887,0.377117 0.709549,0.689066 0.712579,0.693215 0.0063,0.0084 -0.06936,0.02375 -0.237942,0.04837 z" />
    <path
       d="m 54.850807,63.770533 c 0.007,0.0031 0.016,0.844931 0.01328,1.247282 -0.0045,0.639745 -0.02572,1.160079 -0.06437,1.563714 l -0.02005,0.209375 -0.07819,0.04874 c -0.69634,0.434046 -1.14286,0.665589 -1.72896,0.896547 -0.163335,0.06438 -0.660059,0.242533 -0.700498,0.251259 -0.01194,0.0027 -0.111611,-0.05552 -0.23689,-0.138056 l -1.4e-5,-5.8e-5 c -0.430966,-0.283948 -0.771526,-0.560436 -2.047727,-1.66245 -0.573386,-0.495124 -0.926545,-0.811409 -0.921598,-0.825358 0.0018,-0.0054 0.03405,-0.01983 0.07152,-0.03235 0.112253,-0.03753 0.386356,-0.157697 0.587897,-0.257743 0.10411,-0.0517 0.20843,-0.102399 0.231819,-0.112707 0.0234,-0.01034 0.314181,-0.0831 0.646189,-0.161793 0.332016,-0.07869 0.665678,-0.159181 0.741471,-0.178874 l 0.137811,-0.03583 0.188457,0.171855 c 0.310598,0.283239 0.589487,0.487717 0.70084,0.513846 0.02456,0.0057 0.06685,0.0056 0.09409,-2.45e-4 0.138052,-0.02981 0.174248,-0.182124 0.175924,-0.740215 l 8.91e-4,-0.22935 -0.0088,-0.315362 c 0.0031,-0.201986 -0.06955,-1.548111 -0.134905,-2.49451 l -0.04764,-0.706411 c -0.0022,-0.0013 -0.01462,-0.135677 -0.02678,-0.298392 -0.178634,-2.380965 -0.485244,-5.44182 -0.710133,-7.089189 -0.01974,-0.144461 -0.03329,-0.266687 -0.03008,-0.271603 0.0081,-0.01257 1.887143,-0.349344 2.0366,-0.365013 l 0.0736,-0.0077 0.02955,0.150798 c 0.320888,1.635077 0.651915,4.426843 0.848345,7.154897 l 0.0221,0.306681 0.01587,0.281759 c 0.004,0.0018 0.05076,0.792482 0.07344,1.241667 0.03543,0.701816 0.06642,1.572003 0.05651,1.587427 z" />
    <path
       d="m 47.432413,43.102356 c -0.735175,-0.245206 -2.294033,-0.748659 -3.19699,-1.032509 -0.275048,-0.08646 -0.503035,-0.163383 -0.506644,-0.170946 -0.0071,-0.01435 -0.792106,-0.958134 -1.317526,-1.583444 -1.65854,-1.973881 -2.863311,-3.345462 -3.308856,-3.766994 -0.192088,-0.181736 -0.266194,-0.220637 -0.360766,-0.189379 -0.09496,0.03142 -0.129428,0.120743 -0.12025,0.311789 0.02173,0.452509 0.260405,1.9326 0.60673,3.76256 0.03054,0.162229 0.05511,0.297522 0.05426,0.300726 -8.02e-4,0.0031 -0.03531,0.0036 -0.07655,8.92e-4 -0.120165,-0.0078 -0.401587,-0.0075 -0.575991,4.45e-4 -0.331787,0.01529 -0.957926,0.08196 -1.257601,0.133895 -0.04327,0.0074 -0.08048,0.0097 -0.08276,0.0049 -0.0083,-0.01747 -0.141166,-0.487044 -0.231565,-0.818548 -0.347987,-1.276134 -0.658764,-2.603635 -0.966515,-4.128541 -0.106727,-0.528824 -0.231879,-1.185473 -0.228017,-1.19637 0.0034,-0.0098 0.261509,-0.167247 0.442622,-0.270163 0.236415,-0.134335 1.550827,-0.760929 1.946782,-0.928065 0.385703,-0.162786 1.004409,-0.413608 1.012869,-0.410604 0.0037,0.0013 0.104347,0.113403 0.223587,0.24907 2.446073,2.783058 4.88441,5.704706 6.772931,8.115411 0.53669,0.685086 1.229774,1.588465 1.247961,1.626623 0.0057,0.01243 -0.01783,0.0091 -0.0777,-0.01092 z" />
    <path
       d="m 39.403856,52.202804 c -0.02611,-0.115203 -0.07271,-0.319747 -0.103502,-0.454542 -0.359415,-1.572159 -1.008021,-4.713335 -1.561082,-7.560269 -0.0615,-0.316543 -0.118653,-0.608295 -0.12703,-0.648346 l -0.01522,-0.07283 0.326099,-0.0689 c 0.396176,-0.08353 0.717854,-0.138779 0.911664,-0.156472 0.1317,-0.01199 0.160565,-0.0098 0.316356,0.02442 0.216844,0.04764 0.689229,0.173236 0.710703,0.188968 0.0091,0.0065 0.131114,0.57926 0.271733,1.272663 0.491936,2.42976 1.050899,5.075469 1.480651,7.008435 0.04456,0.199495 0.07526,0.36709 0.06838,0.37238 -0.01902,0.01497 -2.152668,0.30997 -2.208906,0.305531 -0.01502,-0.0013 -0.03756,-0.06973 -0.06969,-0.211216 z" />
    <path
       d="m 50.469528,50.366712 c -0.737086,-0.969752 -2.326158,-2.976055 -3.49021,-4.406236 -0.158418,-0.194651 -0.284692,-0.356768 -0.28075,-0.360142 0.0085,-0.0072 1.086469,0.347178 2.765756,0.909342 l 1.157196,0.38739 0.09078,0.111812 c 0.04975,0.06163 0.263474,0.336567 0.474476,0.611303 0.83022,1.080124 1.396244,1.862475 1.749193,2.417973 0.117013,0.183817 0.130035,0.211586 0.104245,0.219795 -0.06423,0.02045 -2.286646,0.406705 -2.323275,0.403812 -0.0135,-8.91e-4 -0.124829,-0.13384 -0.247368,-0.295062 z" />
  </g> 
 
  <g
     id="hollow-club-body-outline-1"
     class="outline"
     >
    <path
       d="m 38.34445,54.944074 c 0.824675,0.0022 2.370433,-0.171321 4.275175,-0.44251 m 4.447094,-0.693394 c 6.037279,-0.715856 13.259206,-2.212515 13.259206,-2.212515 0,0 0.183614,-1.137078 0.280945,-2.370456 0.09732,-1.233383 0.03307,-1.608737 0.03307,-1.608737 0,0 -3.138121,-1.151763 -6.187283,-1.882645 M 52.152612,44.800608 C 49.166408,43.767668 45.91862,42.674936 43.372553,41.89627 M 41.01489,41.214499 c -0.826997,-0.219459 -1.466241,-0.358495 -1.843427,-0.38826 -1.112884,-0.08782 -3.448467,0.388382 -6.036969,1.083031 m -5.624655,1.728209 -0.714558,0.229407 c -1.868065,0.651851 -2.722125,0.928454 -3.420565,1.325495 -0.237256,1.152047 -0.286601,1.777304 -0.232976,2.952305 1.71292,1.348038 8.642697,4.83063 12.830869,6.26384" />
    <path
       d="m 42.4346,44.137196 c 2.391064,0.747002 5.633247,1.80781 8.499348,2.780767 m 2.465798,0.848444 c 2.40438,0.84049 4.13131,1.491199 4.122274,1.605719 -0.0122,0.154853 -3.313545,0.780204 -7.184314,1.440524 m -4.38377,0.723841 c -2.7959,0.446988 -5.370688,0.829973 -6.737965,0.991004 M 36.813787,52.125202 C 33.494132,50.798381 25.865248,47.17481 25.88884,46.875854 c 0.0034,-0.04274 0.172051,-0.128147 0.468877,-0.2454 l 0.566454,-0.186684 m 4.113522,-1.30811 c 3.403543,-0.995028 7.346134,-2.030041 7.950136,-1.982373 0.136868,0.01078 0.531654,0.111075 1.117417,0.278925" />
  </g>
  <g
     id="hollow-club-body-outline-2"
     class="outline">
    <path
       d="m 41.758736,39.764378 c -0.414286,0.713065 -1.03685,2.138516 -1.754364,3.923665 m -1.62305,4.197994 c -2.398689,5.586365 -4.713508,12.589066 -4.713508,12.589066 0,0 0.89293,0.727554 1.912402,1.428534 1.019479,0.700977 1.376674,0.833005 1.376674,0.833005 0,0 2.566517,-2.141811 4.72406,-4.417022 m 1.958206,-1.525292 c 2.387653,-2.069659 4.957882,-4.335961 6.905259,-6.151586 m 1.769263,-1.700911 c 0.603555,-0.60647 1.043586,-1.090554 1.257956,-1.402324 0.632494,-0.919878 1.387885,-3.180651 2.080553,-5.769684 m 1.315655,-5.735199 0.158606,-0.733529 c 0.369512,-1.943717 0.556998,-2.821656 0.56237,-3.625044 -0.879074,-0.781493 -1.39589,-1.136855 -2.440283,-1.677915 -2.023896,0.809413 -8.504797,5.06948 -11.84008,7.979938" />
    <path
       d="m 49.072691,48.709991 c -1.842455,1.697221 -4.382233,3.974631 -6.657889,5.970268 m -1.967673,1.711222 c -1.930075,1.662009 -3.357072,2.83222 -3.45173,2.767134 -0.128008,-0.08799 0.981095,-3.259716 2.344626,-6.94206 m 1.56502,-4.158377 c 1.010847,-2.644814 1.966567,-5.066139 2.510749,-6.330751 m 1.549488,-1.879206 c 2.808887,-2.211495 9.761434,-7.006516 10.008542,-6.836608 0.03532,0.0243 0.02495,0.213075 -0.02192,0.52876 l -0.121554,0.583906 m -0.923905,4.21647 c -0.840052,3.445068 -1.914999,7.376959 -2.258282,7.876206 -0.07777,0.11314 -0.362021,0.404888 -0.800264,0.828248" />
  </g>
  <g
     id="hollow-club-body-outline-3"
     class="outline">
    <path
       d="m 53.197591,50.311083 c -0.41039,-0.715314 -1.333585,-1.967195 -2.520812,-3.481156 m -2.824044,-3.504599 c -3.63859,-4.870509 -8.545698,-10.376551 -8.545698,-10.376551 0,0 -1.076545,0.409523 -2.193347,0.941922 -1.116804,0.532406 -1.409741,0.775732 -1.409741,0.775732 0,0 0.571605,3.293575 1.463224,6.299667 m 0.341839,2.458502 c 0.59855,3.102598 1.276111,6.461632 1.874799,9.055923 m 0.588401,2.382682 c 0.223441,0.825929 0.422655,1.449049 0.585471,1.790584 0.48039,1.007695 2.060582,2.792269 3.956416,4.686653 m 4.309001,4.006991 0.555952,0.504121 c 1.498552,1.291866 2.165127,1.893203 2.858195,2.299549 1.116329,-0.370554 1.68249,-0.640449 2.673259,-1.274389 0.310975,-2.157452 -0.137901,-9.900111 -0.990791,-14.243779" />
    <path
       d="m 41.793485,52.172348 c -0.548609,-2.444223 -1.251014,-5.782441 -1.841459,-8.751035 m -0.498125,-2.559665 c -0.474305,-2.5025 -0.774239,-4.32342 -0.670543,-4.372854 0.140205,-0.06686 2.332448,2.479511 4.839687,5.501536 m 2.818749,3.434536 c 1.785054,2.197826 3.404122,4.236166 4.227218,5.339747 m 0.852696,2.281499 c 0.510767,3.538316 1.187104,11.956909 0.916405,12.085956 -0.0387,0.01844 -0.197005,-0.08493 -0.446961,-0.28336 l -0.444901,-0.397222 m -3.189617,-2.90836 C 45.793143,59.093086 42.925499,56.196209 42.66478,55.649294 42.60568,55.525372 42.495147,55.13333 42.347628,54.54212" />
  </g>



  <path
     id="solid-club-mid-1"
     class="outline solid-mid-1"
     d="m 47.663074,61.614959 c 0,0 0.28688,0.62497 0.552694,1.85637 0.265818,1.23142 0.262279,1.91906 0.262279,1.91906 0.726043,-0.15673 1.456083,-0.57735 1.456083,-0.57735 0,0 -0.07079,-0.93731 -0.227331,-1.66335 -0.156739,-0.72605 -0.479053,-1.60903 -0.479053,-1.60903 0,0 -0.838634,-0.0824 -1.564672,0.0743 z"
   />
   <path
     id="solid-club-mid-2"
     class="outline solid-mid-2"
     d="m 31.322265,44.499104 c 0,0 -0.684677,-0.06404 -1.884012,-0.449537 -1.199345,-0.385505 -1.793094,-0.732389 -1.793094,-0.732389 -0.227291,0.707129 -0.228046,1.549676 -0.228046,1.549676 0,0 0.847137,0.407351 1.554181,0.634807 0.707143,0.227282 1.632983,0.389636 1.632983,0.389636 0,0 0.490692,-0.685064 0.718006,-1.392184 z" />
   <path
     id="solid-club-mid-3"
     class="outline solid-mid-3"
     d="m 54.315435,38.905475 c 0,0 0.397801,-0.56093 1.33132,-1.406833 0.933529,-0.845912 1.530811,-1.186668 1.530811,-1.186668 -0.498747,-0.550408 -1.228034,-0.972332 -1.228034,-0.972332 0,0 -0.776348,0.529961 -1.32685,1.028552 -0.550403,0.498765 -1.153925,1.219388 -1.153925,1.219388 0,0 0.347936,0.767485 0.846661,1.317901 z" />
  
  <path
     id="hollow-club-mid-1"
     class="outline hollow-mid-1"
     d="m 62.160009,47.994741 c 0,0 -0.792878,-0.320889 -1.520075,-0.378272 0,0 0.03383,0.760443 -0.06345,1.993811 -0.09732,1.233391 -0.250559,1.985379 -0.250559,1.985379 0.727197,0.0574 1.560594,-0.13517 1.560594,-0.13517 0,0 0.237747,-1.078499 0.287906,-1.704723 0.05039,-0.626201 -0.01439,-1.761025 -0.01439,-1.761025 z" />
  <path
     id="hollow-club-mid-2"
     class="outline hollow-mid-2"
     d="m 35.869253,63.863929 c 0,0 0.674337,-0.52621 1.08763,-1.12729 0,0 -0.675478,-0.35093 -1.694965,-1.05186 -1.019483,-0.70098 -1.594106,-1.20967 -1.594106,-1.20967 -0.413291,0.60108 -0.663238,1.41909 -0.663238,1.41909 0,0 0.815132,0.74515 1.33238,1.10169 0.517114,0.35674 1.532299,0.86804 1.532299,0.86804 z" />
  <path
     id="hollow-club-mid-3"
     class="outline hollow-mid-3"
     d="m 35.271511,33.160868 c 0,0 0.118544,0.847102 0.432445,1.50556 0,0 0.641654,-0.409517 1.758421,-0.941951 1.116808,-0.532408 1.844663,-0.775698 1.844663,-0.775698 -0.313904,-0.658463 -0.897353,-1.283929 -0.897353,-1.283929 0,0 -1.05288,0.333354 -1.620287,0.603027 -0.567506,0.269464 -1.517889,0.892991 -1.517889,0.892991 z" />


  <path
     id="hollow-cap-1"
     class="outline solid-cap-1"
     d="m 22.445798,45.506563 c -0.148619,0.246597 -0.292063,0.42758 -0.342671,1.070859 -0.05076,0.643225 0.06252,0.844472 0.170622,1.111329 0.246595,0.148614 0.868137,0.455986 0.868137,0.455986 0,0 -0.09291,-0.459391 -0.01187,-1.486276 0.08103,-1.026895 0.244847,-1.46603 0.244847,-1.46603 0,0 -0.662062,0.206078 -0.928914,0.314181 z" />
  <path
     id="hollow-cap-2"
     class="outline solid-cap-2"
     d="m 57.881183,30.714498 c -0.139251,-0.252007 -0.224265,-0.466722 -0.756053,-0.832189 -0.531672,-0.365571 -0.762596,-0.368093 -1.047747,-0.407904 -0.252007,0.139251 -0.828972,0.523838 -0.828972,0.523838 0,0 0.444296,0.149238 1.293092,0.732861 0.848799,0.583618 1.147191,0.945057 1.147191,0.945057 0,0 0.152567,-0.676405 0.192369,-0.961551 z" />
  <path
     id="hollow-cap-3"
     class="outline solid-cap-3"
     d="m 52.973794,68.798479 c 0.287865,0.005 0.516328,0.0391 1.098726,-0.23867 0.582428,-0.27766 0.700078,-0.47638 0.877125,-0.70343 0.0054,-0.28786 -0.03917,-0.97982 -0.03917,-0.97982 0,0 -0.35139,0.31015 -1.281224,0.75342 -0.929829,0.44327 -1.392036,0.52097 -1.392036,0.52097 0,0 0.509496,0.47032 0.736542,0.64737 z" />

  <g
     id="hollow-club-handle-1"
     class="outline">
    <path
       d="M 65.489296,48.341483 62.16001,47.994735 c 0,0 0.04031,0.663411 -0.04464,1.739935 -0.08495,1.076522 -0.228852,1.725815 -0.228852,1.725815 l 1.072311,0.05772 c 0.09524,-0.08183 0.367909,-0.308091 6e-6,4e-6 0.363655,-0.32768 0.999951,-1.159086 1.404101,-1.624304 0.492743,-0.453504 0.807317,-1.103713 1.126362,-1.552417 z" />
    <path
       d="m 70.06444,48.817979 -4.575144,-0.476496 c -0.311098,0.445869 -0.804991,1.180524 -1.126357,1.552421 -0.404148,0.465222 -0.822558,1.109198 -1.186212,1.436883 -0.126468,0.113952 -0.122663,0.105588 -0.217894,0.187417 l 4.777741,0.257037 c 0.04763,-0.042 0.03786,-0.03033 0.09014,-0.07751 0.363649,-0.327688 0.782063,-0.971666 1.186207,-1.436887 0.39933,-0.459681 0.811405,-1.100991 1.051528,-1.442869 z" />
    <path
       d="M 74.630297,49.293433 70.06444,48.817979 c -0.240119,0.341873 -0.652195,0.983182 -1.051525,1.442863 -0.404144,0.465222 -0.822558,1.109199 -1.186207,1.436887 -0.05233,0.04709 -0.04251,0.03546 -0.09014,0.07751 l 4.772606,0.256936 c 0.35915,-0.324954 0.76021,-0.951399 1.153712,-1.404386 0.364795,-0.419915 0.732796,-1.005031 0.96741,-1.334354 z" />
    <path
       d="m 79.195881,49.768567 -4.565584,-0.475134 c -0.234614,0.329323 -0.602615,0.914439 -0.96741,1.334354 -0.393502,0.452987 -0.794562,1.079432 -1.153712,1.404386 l 4.760289,0.255966 c 0.340287,-0.312404 0.686115,-0.88211 1.04341,-1.293406 0.330267,-0.380181 0.657244,-0.913939 0.883007,-1.226166 z" />
    <path
       d="m 83.761432,50.244012 -4.565551,-0.475445 c -0.225763,0.312227 -0.55274,0.845985 -0.883007,1.226166 -0.357295,0.411296 -0.703123,0.981002 -1.04341,1.293406 l 4.760558,0.256286 c 0.316491,-0.29512 0.611746,-0.813139 0.93283,-1.182744 0.295687,-0.340365 0.584897,-0.826699 0.79858,-1.117669 z" />
    <path
       d="m 88.327016,50.719146 -4.565584,-0.475134 c -0.213683,0.29097 -0.502893,0.777304 -0.79858,1.117669 -0.321084,0.369605 -0.616339,0.887624 -0.93283,1.182744 l 4.760298,0.255963 c 0.288426,-0.273513 0.537363,-0.743895 0.82222,-1.071786 0.261171,-0.300648 0.515905,-0.74341 0.714476,-1.009456 z" />
    <path
       d="m 90.566026,50.952354 -2.23901,-0.233208 c -0.198571,0.266046 -0.453309,0.708814 -0.714481,1.009452 -0.284855,0.327906 -0.533787,0.798286 -0.82222,1.071791 l 3.600607,0.205326 c 3.59e-4,-0.0191 -0.0068,0.06601 0,0 l 0.175104,-2.053361 c 0.0017,-0.02144 -0.0028,0.02102 -1.45e-4,-4e-6 z" />
  </g>
  <g
     id="hollow-club-handle-2"
     class="outline">
    <path
       d="m 33.904318,66.573802 1.964933,-2.709874 c 0,0 -0.594686,-0.296793 -1.484502,-0.908627 -0.889824,-0.611831 -1.380175,-1.061098 -1.380175,-1.061098 l -0.586139,0.899789 c 0.02325,0.123395 0.08286,0.472661 -8e-6,2e-6 0.101956,0.478775 0.503823,1.445527 0.704642,2.028144 0.146373,0.653476 0.552183,1.251013 0.781249,1.751664 z" />
    <path
       d="m 31.204088,70.297745 2.70023,-3.723943 c -0.230582,-0.492357 -0.619867,-1.287404 -0.781258,-1.751667 -0.200818,-0.582612 -0.549315,-1.266952 -0.651268,-1.745728 -0.03545,-0.166504 -0.0301,-0.159027 -0.05336,-0.282413 l -2.611468,4.009126 c 0.01259,0.06225 0.0073,0.04796 0.02203,0.116822 0.101957,0.47878 0.450453,1.16312 0.651276,1.745731 0.198431,0.575669 0.547784,1.253193 0.723794,1.632083 z" />
    <path
       d="m 28.509403,74.014164 2.694685,-3.716419 c -0.176011,-0.37889 -0.525364,-1.056413 -0.723795,-1.632083 -0.200821,-0.582606 -0.549314,-1.266952 -0.651275,-1.745726 -0.01463,-0.06887 -0.0095,-0.05455 -0.02203,-0.116822 l -2.608818,4.00473 c 0.101843,0.473513 0.443832,1.13406 0.639376,1.701337 0.181261,0.52588 0.503988,1.137136 0.67188,1.504978 z" />
    <path
       d="m 25.815133,77.730508 2.69427,-3.716344 c -0.167892,-0.367843 -0.49062,-0.979098 -0.67188,-1.504978 -0.195544,-0.567277 -0.537534,-1.227824 -0.639376,-1.701337 L 24.59633,74.8024 c 0.100418,0.450894 0.420871,1.035248 0.598415,1.55032 0.164114,0.476107 0.462873,1.026156 0.620388,1.377788 z" />
    <path
       d="m 23.120613,81.446672 2.69452,-3.716164 C 25.657618,77.378876 25.358859,76.828827 25.194745,76.35272 25.017201,75.837648 24.696736,75.253296 24.59633,74.8024 l -2.602229,3.99462 c 0.09734,0.421648 0.398326,0.936355 0.55787,1.399229 0.146924,0.426248 0.423496,0.919884 0.568642,1.250423 z" />
    <path
       d="m 20.426343,85.163016 2.69427,-3.716344 c -0.145146,-0.330539 -0.421718,-0.824175 -0.568642,-1.250423 -0.159544,-0.462874 -0.460534,-0.977581 -0.55787,-1.399229 l -2.60182,3.994557 c 0.09265,0.386538 0.375549,0.837313 0.517084,1.247956 0.129785,0.376502 0.385858,0.818494 0.516978,1.123483 z" />
    <path
       d="m 19.104873,86.985451 1.32147,-1.822435 c -0.13112,-0.304989 -0.387199,-0.746985 -0.516974,-1.123489 -0.141543,-0.410641 -0.424438,-0.861415 -0.517085,-1.247955 l -1.978122,3.015555 c 0.0163,0.01007 -0.0538,-0.03885 0,0 l 1.690711,1.178324 c 0.01769,0.01221 -0.0168,-0.013 7.6e-5,-1.21e-4 z" />
  </g>
  <g
     id="hollow-club-handle-3"
     class="outline">
    <path
       d="m 33.907162,30.104253 1.364349,3.056618 c 0,0 0.554377,-0.366619 1.529147,-0.831304 0.974776,-0.464696 1.609024,-0.664716 1.609024,-0.664716 l -0.486171,-0.95751 c -0.118487,-0.04156 -0.450766,-0.164571 4e-6,-6e-6 -0.46561,-0.151091 -1.503776,-0.28644 -2.108744,-0.403835 -0.639115,-0.199977 -1.3595,-0.1473 -1.907609,-0.199247 z" />
    <path
       d="m 32.032245,25.903814 1.874917,4.200439 c 0.54168,0.04648 1.424857,0.10688 1.907614,0.199241 0.604967,0.117395 1.371871,0.157759 1.837481,0.30885 0.161921,0.05255 0.152772,0.05343 0.271258,0.09499 l -2.166272,-4.266158 c -0.06021,-0.02026 -0.0452,-0.01763 -0.112194,-0.03931 -0.465613,-0.151085 -1.232519,-0.191454 -1.837485,-0.308839 -0.59776,-0.115988 -1.359187,-0.152203 -1.775321,-0.18922 z" />
    <path
       d="m 30.161074,21.711936 1.871171,4.191878 c 0.416133,0.03701 1.177561,0.07323 1.775321,0.189214 0.604965,0.117385 1.371871,0.157754 1.837485,0.308845 0.06695,0.02174 0.05199,0.0191 0.112193,0.03931 l -2.163791,-4.26167 c -0.460995,-0.148558 -1.20404,-0.182656 -1.793091,-0.29695 -0.546053,-0.105965 -1.236782,-0.132105 -1.639288,-0.170625 z" />
    <path
       d="m 28.289762,17.520458 1.871312,4.191478 c 0.402506,0.03852 1.093235,0.06466 1.639288,0.170625 0.589051,0.114294 1.332096,0.148392 1.793091,0.29695 l -2.158472,-4.250513 c -0.440694,-0.138495 -1.106988,-0.15314 -1.641826,-0.256918 -0.49438,-0.09593 -1.120116,-0.112219 -1.503393,-0.151622 z" />
    <path
       d="m 26.418728,13.328853 1.871034,4.191605 c 0.383277,0.0394 1.009013,0.05569 1.503393,0.151622 0.534838,0.103778 1.201132,0.118423 1.641826,0.256918 L 29.27665,13.678091 c -0.413825,-0.126529 -1.010068,-0.123217 -1.490701,-0.216484 -0.442607,-0.08589 -1.008391,-0.09318 -1.367221,-0.132754 z" />
    <path
       d="m 24.547416,9.1373749 1.871312,4.1914781 c 0.35883,0.03957 0.924614,0.04687 1.367221,0.132754 0.480633,0.09327 1.076876,0.08995 1.490701,0.216484 L 27.118175,9.4275704 C 26.737091,9.3145407 26.205263,9.3341483 25.778869,9.2514004 25.387915,9.1755442 24.877104,9.1763163 24.547416,9.1373749 Z" />
    <path
       d="m 23.629877,7.0817312 0.917539,2.0556437 c 0.329688,0.038941 0.840505,0.038168 1.231454,0.1140311 0.426399,0.082741 0.958227,0.063133 1.339307,0.17617 L 25.49569,6.2066947 c -0.01687,0.00908 0.06054,-0.027167 0,0 l -1.865813,0.8750365 c -0.01944,0.00921 0.01965,-0.00807 6.6e-5,1.265e-4 z" />
  </g>
  
  
  <g
     id="hollow-club-handle-fill-1"
     class="hollow-club-handle-1">
    <path
       d="m 62.426275,51.331545 -0.346865,-0.01409 0.02282,-0.112911 c 0.10418,-0.515522 0.232719,-1.963413 0.233009,-2.624671 1.18e-4,-0.339337 0.0089,-0.385644 0.07313,-0.385795 0.173107,-3.54e-4 2.623061,0.259311 2.691179,0.285291 0.06489,0.02475 0.02656,0.09714 -0.279816,0.528381 -0.31234,0.439638 -1.096849,1.410826 -1.710602,2.117652 -0.113286,0.130465 -0.235225,0.23339 -0.270978,0.228723 -0.03575,-0.0047 -0.221094,-0.01483 -0.411871,-0.02258 z" />
    <path
       d="m 65.685322,51.506407 c -1.094394,-0.06152 -2.067893,-0.112792 -2.163336,-0.113924 l -0.173535,-0.0022 0.130311,-0.140022 c 0.07167,-0.07702 0.315585,-0.376008 0.54202,-0.66443 0.226436,-0.288427 0.50828,-0.64659 0.626322,-0.795922 0.118042,-0.149332 0.375049,-0.500632 0.571131,-0.780667 0.349656,-0.499375 0.358275,-0.50885 0.448646,-0.493435 0.05068,0.0086 0.993768,0.10912 2.095765,0.223276 1.101992,0.11416 2.005831,0.210186 2.008531,0.213391 0.01444,0.01716 -0.616699,0.880998 -0.865761,1.184969 -0.159413,0.194562 -0.423466,0.526196 -0.586787,0.736966 -0.163317,0.210771 -0.374916,0.464333 -0.47022,0.56347 l -0.173286,0.180252 z" />
    <path
       d="m 70.107102,51.743614 c -1.078176,-0.0612 -1.963515,-0.11264 -1.967419,-0.114316 -0.0075,-0.0031 0.346866,-0.453731 0.832497,-1.058197 0.403064,-0.501698 0.665228,-0.850003 0.93967,-1.248437 l 0.23218,-0.337083 0.622698,0.06475 c 0.342481,0.03561 1.219633,0.126741 1.949228,0.202503 0.729594,0.07576 1.394497,0.14664 1.477563,0.157506 l 0.151025,0.01974 -0.279682,0.397961 c -0.153829,0.218877 -0.368481,0.504082 -0.477008,0.633787 -0.108532,0.129705 -0.334414,0.414909 -0.501969,0.633791 -0.167551,0.218877 -0.376828,0.480867 -0.46506,0.582201 l -0.160424,0.18424 -0.196487,-0.0036 c -0.108068,-0.0018 -1.078631,-0.05367 -2.156812,-0.114865 z" />
    <path
       d="m 74.983634,52.008826 c -1.103695,-0.06102 -2.027307,-0.115684 -2.052482,-0.121478 -0.03231,-0.0074 0.08744,-0.179645 0.40703,-0.585361 0.666988,-0.846749 0.948043,-1.219147 1.161684,-1.539233 0.159751,-0.239351 0.203858,-0.286564 0.268492,-0.287415 0.04252,-4.46e-4 0.712437,0.06523 1.488669,0.146207 0.776229,0.08098 1.69099,0.176406 2.032807,0.212063 l 0.621477,0.06483 -0.236757,0.340663 c -0.130213,0.187364 -0.364175,0.499843 -0.519915,0.694405 -0.155741,0.194557 -0.377185,0.479762 -0.492098,0.633786 -0.114914,0.154025 -0.264548,0.343056 -0.332525,0.42007 -0.107511,0.121808 -0.137646,0.139528 -0.231632,0.136212 -0.05942,-0.0022 -1.01106,-0.05373 -2.11475,-0.114749 z" />
    <path
       d="m 79.908721,52.273161 c -1.102496,-0.06158 -2.066147,-0.11626 -2.141441,-0.121501 l -0.136902,-0.0095 0.314012,-0.412699 c 0.172706,-0.226983 0.428016,-0.555542 0.567351,-0.730129 0.139336,-0.174592 0.364742,-0.482489 0.500895,-0.684226 0.180965,-0.268131 0.263952,-0.367104 0.308509,-0.367946 0.03351,-4.46e-4 0.62383,0.05781 1.311795,0.129865 0.687966,0.07206 1.602375,0.167092 2.032027,0.211185 0.429647,0.04408 0.785792,0.08371 0.791421,0.08804 0.018,0.01381 -0.397083,0.607207 -0.606321,0.866822 -0.111071,0.137811 -0.303129,0.389997 -0.426795,0.560409 -0.240612,0.331557 -0.458455,0.591635 -0.490404,0.585472 -0.01078,-0.0022 -0.921647,-0.05417 -2.024147,-0.115751 z" />
    <path
       d="m 84.369799,52.514174 c -1.064673,-0.05871 -1.943474,-0.11445 -1.952891,-0.123872 -0.01698,-0.01698 0.490752,-0.713818 0.752617,-1.032981 0.0748,-0.09116 0.252841,-0.336572 0.395657,-0.54535 0.142812,-0.208783 0.263194,-0.384324 0.267508,-0.3901 0.0089,-0.01185 4.102736,0.406099 4.161733,0.424893 0.04619,0.01471 -0.161369,0.332827 -0.508583,0.779486 -0.132334,0.170237 -0.309462,0.40998 -0.393616,0.532764 -0.08416,0.122779 -0.20044,0.278644 -0.258411,0.346371 l -0.105403,0.123136 -0.211421,-0.004 c -0.116282,-0.0022 -1.082517,-0.05184 -2.14719,-0.110546 z" />
    <path
       d="m 88.585061,52.745988 c -0.756713,-0.04486 -1.390272,-0.08636 -1.407903,-0.09224 -0.03311,-0.01105 0.322761,-0.530585 0.599836,-0.875721 0.129384,-0.161169 0.24895,-0.33056 0.622846,-0.882407 0.0086,-0.0127 1.896363,0.186446 1.911217,0.201607 0.0071,0.0072 -0.01199,0.311441 -0.04243,0.676018 -0.03039,0.364576 -0.05837,0.752586 -0.06214,0.862249 l -0.0069,0.199379 -0.119375,-0.0036 c -0.06566,-0.0022 -0.738507,-0.04038 -1.49522,-0.08522 z" />
  </g>
  <g
     id="hollow-club-handle-fill-2"
     class="hollow-club-handle-2">
    <path
       d="m 33.675132,65.709489 c -0.234218,-0.509901 -0.865881,-2.153406 -1.01794,-2.648552 l -0.07061,-0.229918 0.206297,-0.318353 c 0.113464,-0.175096 0.217749,-0.330395 0.231745,-0.34511 0.01489,-0.01566 0.09014,0.02822 0.181457,0.105821 0.452885,0.384857 1.650719,1.212234 2.168784,1.498037 0.132251,0.07296 0.236539,0.145919 0.231753,0.162132 -0.01193,0.0404 -1.65128,2.310862 -1.669694,2.312487 -0.0081,7.08e-4 -0.125914,-0.24073 -0.261792,-0.536544 z" />
    <path
       d="M 31.05422,69.605813 C 30.871377,69.21759 30.843606,69.150517 30.359502,67.92789 30.04146,67.124657 29.967684,66.900033 29.996906,66.823885 c 0.0093,-0.02412 0.477458,-0.750648 1.040446,-1.614494 0.562988,-0.863847 1.08655,-1.668582 1.163471,-1.7883 l 0.139859,-0.217671 0.0343,0.129235 c 0.01886,0.07108 0.13845,0.387908 0.26575,0.704066 0.127299,0.316157 0.306452,0.766225 0.398116,1.000152 0.09167,0.233926 0.282097,0.671712 0.423184,0.972859 l 0.25652,0.547541 -1.21853,1.679918 c -0.670193,0.923957 -1.230868,1.692257 -1.245945,1.707336 -0.0169,0.0169 -0.09355,-0.113005 -0.199853,-0.338714 z" />
    <path
       d="m 28.321732,73.242291 c -0.110289,-0.239636 -0.252654,-0.574424 -0.316367,-0.743975 -0.06371,-0.16955 -0.213096,-0.547613 -0.331965,-0.840139 -0.118868,-0.292525 -0.235208,-0.598192 -0.258533,-0.679258 l -0.04241,-0.147392 1.167149,-1.788886 c 0.641931,-0.983888 1.173988,-1.795493 1.182349,-1.803567 0.01298,-0.01254 0.323111,0.749061 0.724637,1.779522 0.06002,0.154025 0.168352,0.406067 0.240743,0.560092 0.07239,0.154026 0.17593,0.375637 0.230084,0.492471 l 0.09846,0.212425 -1.22402,1.688942 c -0.673211,0.928917 -1.234277,1.692659 -1.246812,1.697204 -0.01253,0.0045 -0.113027,-0.187805 -0.223315,-0.427439 z" />
    <path
       d="m 25.645335,76.997116 c -0.106618,-0.230751 -0.246262,-0.558321 -0.310321,-0.727935 -0.06406,-0.169612 -0.195854,-0.494101 -0.292882,-0.721086 -0.09703,-0.226985 -0.198631,-0.48057 -0.225786,-0.563524 l -0.04937,-0.150824 1.168357,-1.79476 c 0.642595,-0.987118 1.177882,-1.804925 1.189525,-1.817348 0.01164,-0.01242 0.06915,0.100332 0.127783,0.250567 0.05864,0.150236 0.178828,0.452238 0.267094,0.671116 0.08826,0.218878 0.203763,0.510716 0.256663,0.648528 0.0529,0.137812 0.19519,0.459624 0.316201,0.715136 0.121009,0.255512 0.212368,0.484504 0.203017,0.50887 -0.01376,0.03586 -2.22995,3.108373 -2.406343,3.336141 -0.04921,0.06354 -0.05347,0.05734 -0.243934,-0.354881 z" />
    <path
       d="m 22.957831,80.731102 c -0.09486,-0.205534 -0.221783,-0.500689 -0.28204,-0.655898 -0.06026,-0.155208 -0.192422,-0.472207 -0.293703,-0.704442 -0.10128,-0.232234 -0.185995,-0.457745 -0.188256,-0.501135 -0.003,-0.0579 0.308696,-0.559034 1.171612,-1.883566 l 1.175724,-1.804676 0.131216,0.316009 c 0.07217,0.173804 0.227243,0.554784 0.344609,0.846622 0.117366,0.291837 0.303592,0.718729 0.413837,0.948648 l 0.200445,0.418034 -1.230337,1.697052 c -0.676685,0.933378 -1.239401,1.697051 -1.250479,1.697051 -0.01108,0 -0.09776,-0.168164 -0.192628,-0.373699 z" />
    <path
       d="m 20.295309,84.513265 c -0.08535,-0.180375 -0.206441,-0.453976 -0.269096,-0.608001 -0.06265,-0.154026 -0.183899,-0.432598 -0.269432,-0.61905 -0.08553,-0.186452 -0.156787,-0.378799 -0.158343,-0.427439 -0.0022,-0.06901 0.252874,-0.481461 1.161574,-1.878166 0.640421,-0.984352 1.171035,-1.789826 1.179142,-1.789944 0.01872,-2.36e-4 0.315292,0.682326 0.473035,1.088737 0.06608,0.170239 0.211115,0.498144 0.322308,0.728678 l 0.20217,0.419152 -1.22336,1.688564 c -0.672848,0.92871 -1.232239,1.696857 -1.24309,1.706993 -0.01085,0.01014 -0.08956,-0.129149 -0.174908,-0.309524 z" />
    <path
       d="m 18.35751,86.268061 c -0.389117,-0.271159 -0.70565,-0.503464 -0.703408,-0.516233 0.0038,-0.0214 0.340829,-0.539655 1.313754,-2.019944 l 0.375517,-0.571341 0.136454,0.291295 c 0.07505,0.160212 0.189293,0.423947 0.253873,0.586079 0.06458,0.162132 0.202924,0.473225 0.307431,0.691319 0.104508,0.218093 0.183981,0.412255 0.176608,0.431471 -0.01166,0.03039 -1.085439,1.52609 -1.134344,1.580064 -0.01012,0.01117 -0.336768,-0.201551 -0.725885,-0.47271 z" />
  </g>
  <g
     id="hollow-club-handle-fill-3"
     class="hollow-club-handle-3">
    <path
       d="M 26.360936,9.1617362 C 26.158271,9.1412168 25.853168,9.1039371 25.68293,9.0788921 25.512691,9.0538483 25.212508,9.0243037 25.015854,9.0132375 l -0.35755,-0.02012 -0.396089,-0.888151 -0.396091,-0.888151 0.178809,-0.07743 c 0.09834,-0.042586 0.454414,-0.2109344 0.791266,-0.3741076 l 0.612456,-0.296678 0.444671,0.8899822 c 0.24457,0.4894901 0.557045,1.1055446 0.69439,1.3690086 0.200859,0.3852976 0.239152,0.4782859 0.195711,0.4752402 -0.0297,-0.00209 -0.219826,-0.020576 -0.422491,-0.041096 z" />
    <path
       d="m 28.467142,13.391527 c -0.244029,-0.02859 -0.575663,-0.07264 -0.736963,-0.09788 -0.161302,-0.02525 -0.492256,-0.06086 -0.735454,-0.07914 -0.243198,-0.01828 -0.451398,-0.04207 -0.462666,-0.05287 -0.01127,-0.0108 -0.40491,-0.880202 -0.874761,-1.93201 l -0.854275,-1.9123747 0.29993,0.020029 c 0.164962,0.011013 0.419319,0.038578 0.565237,0.061248 0.145919,0.02267 0.477553,0.061733 0.736964,0.086806 0.259411,0.025073 0.501399,0.053731 0.53775,0.063683 0.05235,0.014331 0.211027,0.3040748 0.762804,1.3928407 0.383191,0.756109 0.828549,1.630103 0.989684,1.942207 0.164553,0.318723 0.275981,0.565704 0.254207,0.56345 -0.02132,-0.0022 -0.238427,-0.0274 -0.482457,-0.05599 z" />
    <path
       d="m 30.473194,17.607913 c -0.324264,-0.0446 -0.73549,-0.10238 -0.913835,-0.128405 -0.178345,-0.02602 -0.509368,-0.06132 -0.735606,-0.07842 -0.226238,-0.01711 -0.41707,-0.03683 -0.424071,-0.04383 -0.02865,-0.02865 -1.714561,-3.827033 -1.703525,-3.838069 0.01844,-0.01844 0.739594,0.04877 1.020793,0.09513 0.137812,0.02272 0.449548,0.06273 0.692746,0.08892 0.243198,0.02619 0.506999,0.05986 0.586224,0.07482 0.07923,0.01497 0.148019,0.02721 0.152875,0.02721 0.0084,0 0.291826,0.552705 1.470066,2.866789 0.288191,0.566015 0.504196,1.022714 0.482738,1.020659 -0.02136,-0.002 -0.304141,-0.04021 -0.628405,-0.08481 z" />
    <path
       d="m 32.743043,21.865356 c -0.259412,-0.03724 -0.637474,-0.0953 -0.840139,-0.129014 -0.318073,-0.05292 -0.740862,-0.100847 -1.459416,-0.165451 l -0.177099,-0.01592 -0.858613,-1.921894 c -0.472236,-1.057042 -0.856529,-1.924405 -0.853984,-1.927473 0.01352,-0.0163 0.968825,0.08392 1.285613,0.13488 0.202665,0.0326 0.501136,0.07384 0.663268,0.09165 0.162132,0.01781 0.410591,0.05298 0.552133,0.07817 l 0.257347,0.04579 0.24734,0.476071 c 0.751396,1.446265 1.727706,3.408632 1.694065,3.405045 -0.02137,-0.0023 -0.251104,-0.03461 -0.510515,-0.07185 z" />
    <path
       d="m 35.377394,26.172457 c -0.0076,-0.0076 -0.338121,-0.06084 -0.734507,-0.11833 -0.396387,-0.05749 -0.893152,-0.130194 -1.103924,-0.161565 -0.210771,-0.03137 -0.606063,-0.07561 -0.878425,-0.0983 -0.272363,-0.02269 -0.506517,-0.05322 -0.520342,-0.06783 -0.03268,-0.03453 -1.719634,-3.816908 -1.706483,-3.826152 0.02797,-0.01966 0.952149,0.07756 1.351277,0.142156 0.251304,0.04067 0.622734,0.09496 0.825399,0.120645 0.202665,0.02569 0.481237,0.06921 0.61905,0.09673 l 0.250567,0.05002 0.979607,1.930845 c 0.538783,1.061965 0.979855,1.934162 0.980161,1.938215 9.44e-4,0.01295 -0.04805,0.0079 -0.06238,-0.0064 z" />
    <path
       d="m 37.459611,30.39881 c -0.04864,-0.01501 -0.406804,-0.07346 -0.795921,-0.129871 -0.389117,-0.05642 -0.821273,-0.121575 -0.960345,-0.144798 -0.139073,-0.02322 -0.570197,-0.07109 -0.958053,-0.106372 -0.387857,-0.03528 -0.714413,-0.07277 -0.725681,-0.08331 -0.01127,-0.01054 -0.404179,-0.878091 -0.873136,-1.927897 l -0.852648,-1.908736 0.106694,10e-5 c 0.171969,1.18e-4 0.761644,0.05874 1.064746,0.105771 0.154025,0.0239 0.641334,0.09613 1.082907,0.160503 0.441574,0.06438 0.870502,0.14022 0.953173,0.168537 l 0.150311,0.05149 0.970303,1.91205 c 0.533667,1.051627 0.970303,1.917191 0.970303,1.923475 0,0.01563 -0.02901,0.01105 -0.132653,-0.02094 z" />
    <path
       d="m 34.75255,31.605772 c -0.319295,-0.71588 -0.57614,-1.305996 -0.570767,-1.311369 0.01223,-0.01223 0.897166,0.06735 1.214329,0.10919 0.621509,0.08199 2.325733,0.392187 2.394475,0.435828 0.01663,0.01055 0.110668,0.179908 0.208979,0.376338 l 0.178747,0.357146 -0.211958,0.08131 c -0.671263,0.2575 -1.74842,0.766797 -2.331275,1.102266 -0.144192,0.08299 -0.271128,0.150893 -0.28208,0.150893 -0.01095,0 -0.281154,-0.58572 -0.60045,-1.3016 z" />
  </g>


  <g
     id="text"
     class="text">
    <path
       id="text-B"
       d="m 54.965657,80.04248 c 0,1.072012 0.57174,1.529404 1.415056,1.529404 h 1.372176 c 2.043971,0 3.001635,-1.272121 3.001635,-2.57283 0,-1.029132 -0.314457,-1.843861 -1.415056,-2.258373 0.829023,-0.428805 1.200654,-1.100599 1.200654,-2.015383 0,-1.200654 -0.800436,-1.929623 -1.915329,-1.929623 h -0.743262 c -0.200109,0 -0.28587,0.08576 -0.28587,0.28587 v 0.485979 h 0.786142 c 0.686088,0 1.086306,0.300164 1.086306,1.300709 0,0.871903 -0.600327,1.443643 -1.543698,1.443643 H 56.08055 v -3.301798 c 0,-0.800436 0.300163,-1.315002 0.771849,-1.500818 -0.471686,0.05717 -1.072013,0.257283 -1.400763,0.52886 -0.343044,0.28587 -0.485979,0.628914 -0.485979,1.114893 z m 1.114893,-2.644298 h 2.186905 c 0.914784,0 1.415057,0.57174 1.415057,1.472231 0,1.029132 -0.686088,1.615165 -1.843862,1.615165 h -1.257828 c -0.357337,0 -0.500272,-0.128641 -0.500272,-0.500272 z m 1.800981,2.887287 c 0.786142,0 1.357882,-0.32875 1.586578,-0.986251 -0.171522,0.142935 -0.414511,0.214402 -0.643207,0.214402 h -1.42935 v -1.915329 h -1.114893 v 2.401308 c 0,0.200109 0.08576,0.28587 0.28587,0.28587 z m 0.986251,-8.776209 c 1.815275,0 2.944461,1.200654 2.944461,2.715765 0,0.914784 -0.400218,1.643753 -1.14348,2.101145 0.843317,0.428805 1.357883,1.229241 1.357883,2.344134 0,1.629459 -1.243535,2.90158 -2.987342,2.90158 1.057719,-0.32875 1.915329,-1.229241 1.915329,-2.57283 0,-1.057719 -0.32875,-1.829568 -1.243534,-2.28696 0.671794,-0.428805 1.029132,-1.057719 1.029132,-1.986796 0,-1.38647 -0.943371,-2.129732 -2.144025,-2.129732 h -0.700382 c -0.357337,0 -0.500272,0.128642 -0.500272,0.500273 v 2.244079 h 1.18636 c 0.314457,0 0.514566,-0.07147 0.700382,-0.28587 -0.100055,0.628914 -0.586034,1.057719 -1.329296,1.057719 h -1.672339 v -3.073102 c 0,-1.072013 0.57174,-1.529405 1.415056,-1.529405 z" />
    <path
       id="text-J"
       d="m 69.730828,72.238229 c 0,-0.28587 -0.171522,-0.428805 -0.557446,-0.428805 -0.385925,0 -0.557447,0.142935 -0.557447,0.428805 v 6.360607 c 0,1.600872 -0.557446,2.658591 -1.700926,3.130277 1.700926,-0.200109 2.815819,-1.38647 2.815819,-3.344679 z m -5.488704,6.360607 c 0,-0.28587 -0.171522,-0.428805 -0.557446,-0.428805 -0.385925,0 -0.557447,0.142935 -0.557447,0.428805 v 0.171522 c 0,1.872449 1.114893,2.973048 2.630004,2.973048 1.486524,0 2.658591,-0.957664 2.658591,-3.115983 v -6.474955 c 0,-0.271577 0.200109,-0.543153 0.714675,-0.543153 0.114348,0 0.228696,0.01429 0.328751,0.05717 -0.228696,-0.185816 -0.543153,-0.271577 -0.943371,-0.271577 -0.914784,0 -1.214948,0.443099 -1.214948,0.971958 v 6.460662 c 0,1.257828 -0.628914,1.829568 -1.529404,1.829568 -0.886197,0 -1.529405,-0.586033 -1.529405,-1.700926 z m 1.315002,0.128642 c 0,-0.52886 -0.300163,-0.971958 -1.214947,-0.971958 -0.400218,0 -0.714675,0.08576 -0.943371,0.271576 0.100054,-0.04288 0.214402,-0.05717 0.32875,-0.05717 0.514566,0 0.714675,0.271577 0.714675,0.543153 v 0.428805 c 0,1.043426 0.557447,1.515111 1.329296,1.515111 0.543153,0 1.086306,-0.257283 1.257828,-1.014838 -0.157229,0.157228 -0.414512,0.242989 -0.686088,0.242989 -0.414512,0 -0.786143,-0.271576 -0.786143,-0.814729 z" />
    <path
       id="text-C"
       d="m 77.363545,74.711004 c 0,-1.615165 -0.871904,-2.086851 -1.643753,-2.086851 -0.829023,0 -1.315002,0.457392 -1.500817,1.114893 0.200109,-0.200109 0.528859,-0.357337 0.914784,-0.357337 0.714675,0 1.114893,0.500272 1.114893,1.114893 0,0.528859 0.300163,0.971958 1.214947,0.971958 0.400218,0 0.714675,-0.08576 0.943371,-0.271577 -0.100054,0.04288 -0.214402,0.05717 -0.32875,0.05717 -0.514566,0 -0.714675,-0.271576 -0.714675,-0.543153 z m 1.315002,-0.08576 c 0,-1.943916 -1.000545,-3.287505 -2.958755,-3.287505 -1.958209,0 -2.958754,1.343589 -2.958754,3.258918 v 3.773484 c 0,1.415057 0.671794,2.086851 1.643752,2.086851 0.829023,0 1.315002,-0.457392 1.500818,-1.114893 -0.200109,0.200109 -0.52886,0.357338 -0.914784,0.357338 -0.714675,0 -1.114893,-0.500273 -1.114893,-1.114893 v -3.859245 c 0,-1.743807 0.85761,-2.301254 1.843861,-2.301254 1.043426,0 1.815275,0.628914 1.843862,2.201199 0,0.28587 0.171522,0.428805 0.557446,0.428805 0.385925,0 0.557447,-0.142935 0.557447,-0.428805 z m -1.315002,3.830658 c 0,-0.28587 -0.171522,-0.428805 -0.557447,-0.428805 -0.385924,0 -0.557446,0.142935 -0.557446,0.428805 0,1.286415 -0.600327,2.201199 -1.843862,2.201199 -0.986251,0 -1.843861,-0.557446 -1.843861,-2.301253 v -3.802071 c 0,-1.758101 0.843316,-2.81582 1.872448,-3.187451 -1.658046,0.257283 -2.987341,1.415057 -2.987341,3.230331 v 3.887832 c 0,1.915329 1.000545,3.258918 2.958754,3.258918 2.258373,0 2.958755,-1.700926 2.958755,-3.287505 z m 1.315002,0.08576 c 0,-0.514566 -0.328751,-0.929077 -1.214948,-0.929077 -0.400218,0 -0.714675,0.08576 -0.943371,0.271576 0.100055,-0.04288 0.214403,-0.05717 0.328751,-0.05717 0.514566,0 0.714675,0.271577 0.714675,0.543153 v 0.157229 c 0,1.7581 -0.843317,2.815819 -1.872449,3.18745 1.829568,-0.300163 2.987342,-1.572285 2.987342,-3.173157 z" />
    <path
       id="text-2a"
       d="m 57.705889,85.430092 v 0.137831 c 0,0.174585 0.128642,0.349171 0.459435,0.349171 0.07351,0 0.14702,-0.0092 0.211341,-0.03675 -0.14702,0.119453 -0.349171,0.174585 -0.606455,0.174585 -0.542134,0 -0.735097,-0.248095 -0.735097,-0.624832 0,-0.955626 0.634021,-1.690723 1.699911,-1.828553 -0.578888,0.238906 -1.029135,0.845361 -1.029135,1.828553 z m 2.554461,0.477813 c 0,1.552892 -2.453385,1.222098 -2.453385,2.876066 v 0.35836 c 0,0.238906 0.09189,0.321605 0.321604,0.321605 H 60.5452 c 0.165397,0 0.28485,0.101076 0.28485,0.349171 0,0.248095 -0.119453,0.349171 -0.28485,0.349171 h -2.56365 c -0.542134,0 -0.909682,-0.294039 -0.909682,-0.983192 v -0.321605 c 0,-1.047513 0.487001,-1.608024 1.369118,-2.012328 0.845361,-0.385925 1.102645,-0.652398 1.102645,-1.157777 v -0.257284 c 0,-0.404303 -0.229718,-0.523756 -0.496191,-0.523756 -0.119453,0 -0.229717,0.03675 -0.321604,0.101075 0.110264,-0.395114 0.376737,-0.597266 0.744285,-0.597266 0.477813,0 0.790229,0.339982 0.790229,1.010758 z m -0.790229,-1.626402 c 0.578889,0 0.918871,0.413492 0.918871,1.148589 v 0.477813 c 0,1.653968 -2.453386,1.323174 -2.453386,2.876066 v 0.367549 c 0,0.128642 0.05513,0.183774 0.183775,0.183774 h 2.435008 c 0.229718,0 0.404303,0.147019 0.404303,0.459435 0,0.09189 -0.01838,0.174586 -0.04594,0.238907 0.119453,-0.101076 0.183774,-0.266473 0.183774,-0.532945 0,-0.505379 -0.229718,-0.661587 -0.588078,-0.661587 h -1.837742 v -0.156209 c 0,-0.294038 0.303228,-0.49619 1.148589,-0.900493 0.845361,-0.404303 1.28642,-1.056702 1.28642,-2.030705 v -0.321605 c 0,-1.038324 -0.569701,-1.846931 -1.635591,-1.846931 -1.06589,0 -1.63559,0.808607 -1.63559,1.846931 v 0.0827 c 0,0.183775 0.110264,0.275662 0.358359,0.275662 0.248096,0 0.35836,-0.09189 0.35836,-0.275662 v -0.0827 c 0,-0.735097 0.339982,-1.148589 0.918871,-1.148589 z" />
    <path
       id="text-0"
       d="m 63.55909,85.521979 c 0,-0.891305 0.459435,-1.240476 1.001569,-1.240476 0.542134,0 1.001569,0.349171 1.001569,1.240476 v 2.811745 c 0,1.010759 -0.505379,1.681534 -1.121022,1.920441 0.937248,-0.07351 1.837742,-0.771852 1.837742,-1.920441 v -2.811745 c 0,-1.130211 -0.679965,-1.938818 -1.718289,-1.938818 -1.038324,0 -1.718289,0.808607 -1.718289,1.938818 v 2.820934 c 0,0.679965 0.339982,1.102645 0.872928,1.102645 0.431869,0 0.716719,-0.275661 0.817795,-0.670775 -0.0827,0.110264 -0.238907,0.174585 -0.395115,0.174585 -0.358359,0 -0.578888,-0.248095 -0.578888,-0.679965 z m 1.157777,2.811745 c 0,0.891305 -0.459435,1.240476 -1.001569,1.240476 -0.542134,0 -1.00157,-0.349171 -1.00157,-1.240476 v -2.811745 c 0,-1.010758 0.505379,-1.681534 1.121023,-1.92044 -0.937249,0.07351 -1.837742,0.771851 -1.837742,1.92044 v 2.811745 c 0,1.130212 0.679964,1.938818 1.718289,1.938818 1.038324,0 1.718288,-0.808606 1.718288,-1.938818 V 85.51279 c 0,-0.679964 -0.339982,-1.102645 -0.872927,-1.102645 -0.431869,0 -0.716719,0.275661 -0.817795,0.670776 0.0827,-0.110264 0.238906,-0.174585 0.395114,-0.174585 0.35836,0 0.578889,0.248095 0.578889,0.679964 z" />
    <path
       id="text-2b"
       d="m 68.070739,85.430092 v 0.137831 c 0,0.174585 0.128642,0.349171 0.459435,0.349171 0.07351,0 0.14702,-0.0092 0.211341,-0.03675 -0.14702,0.119453 -0.349171,0.174585 -0.606455,0.174585 -0.542134,0 -0.735097,-0.248095 -0.735097,-0.624832 0,-0.955626 0.634021,-1.690723 1.699911,-1.828553 -0.578888,0.238906 -1.029135,0.845361 -1.029135,1.828553 z m 2.554461,0.477813 c 0,1.552892 -2.453385,1.222098 -2.453385,2.876066 v 0.35836 c 0,0.238906 0.09189,0.321605 0.321604,0.321605 h 2.416631 c 0.165397,0 0.28485,0.101076 0.28485,0.349171 0,0.248095 -0.119453,0.349171 -0.28485,0.349171 H 68.3464 c -0.542134,0 -0.909682,-0.294039 -0.909682,-0.983192 v -0.321605 c 0,-1.047513 0.487001,-1.608024 1.369118,-2.012328 0.845361,-0.385925 1.102645,-0.652398 1.102645,-1.157777 v -0.257284 c 0,-0.404303 -0.229718,-0.523756 -0.496191,-0.523756 -0.119453,0 -0.229717,0.03675 -0.321604,0.101075 0.110264,-0.395114 0.376737,-0.597266 0.744285,-0.597266 0.477813,0 0.790229,0.339982 0.790229,1.010758 z m -0.790229,-1.626402 c 0.578889,0 0.918871,0.413492 0.918871,1.148589 v 0.477813 c 0,1.653968 -2.453385,1.323174 -2.453385,2.876066 v 0.367549 c 0,0.128642 0.05513,0.183774 0.183774,0.183774 h 2.435008 c 0.229718,0 0.404303,0.147019 0.404303,0.459435 0,0.09189 -0.01838,0.174586 -0.04594,0.238907 0.119453,-0.101076 0.183774,-0.266473 0.183774,-0.532945 0,-0.505379 -0.229718,-0.661587 -0.588078,-0.661587 h -1.837742 v -0.156209 c 0,-0.294038 0.303228,-0.49619 1.148589,-0.900493 0.845361,-0.404303 1.28642,-1.056702 1.28642,-2.030705 v -0.321605 c 0,-1.038324 -0.5697,-1.846931 -1.635591,-1.846931 -1.06589,0 -1.63559,0.808607 -1.63559,1.846931 v 0.0827 c 0,0.183775 0.110264,0.275662 0.358359,0.275662 0.248096,0 0.35836,-0.09189 0.35836,-0.275662 v -0.0827 c 0,-0.735097 0.339982,-1.148589 0.918871,-1.148589 z" />
    <path
       id="text-3"
       d="m 73.133711,85.264695 c 0,-0.70753 0.367548,-1.378306 0.937248,-1.626401 -1.038324,0.110264 -1.580458,0.817795 -1.580458,1.516137 0,0.376737 0.220529,0.624832 0.707531,0.624832 0.257284,0 0.459436,-0.05513 0.606455,-0.174585 -0.06432,0.02757 -0.137831,0.03675 -0.21134,0.03675 -0.330794,0 -0.459436,-0.174585 -0.459436,-0.349171 z m 0.964815,4.180863 c 0.395114,0 0.799417,-0.229717 0.863738,-0.744285 -0.147019,0.174585 -0.395114,0.248095 -0.652398,0.248095 -0.321605,0 -0.615644,-0.128642 -0.882116,-0.349171 -0.266473,-0.220529 -0.588078,-0.192963 -0.891305,0.165397 -0.147019,0.174585 -0.165397,0.321605 -0.165397,0.459435 0.01838,-0.06432 0.05513,-0.119453 0.110265,-0.174585 0.21134,-0.21134 0.450246,-0.238907 0.615643,-0.07351 0.321605,0.321605 0.5697,0.468624 1.00157,0.468624 z m -0.03676,-2.545272 c 1.258853,0 1.892874,0.487001 1.892874,1.56208 0,0.946438 -0.49619,1.562081 -1.093456,1.791799 1.203721,-0.229718 1.810175,-0.882116 1.810175,-1.883686 0,-0.974003 -0.413491,-1.672345 -1.56208,-1.902063 0.42268,-0.21134 0.578888,-0.606455 0.578888,-1.075079 0,-0.64321 -0.339982,-0.983192 -0.790229,-0.983192 -0.349171,0 -0.634021,0.192963 -0.744285,0.588078 0.09189,-0.06432 0.174585,-0.09189 0.294039,-0.09189 0.321604,0 0.523756,0.21134 0.523756,0.588077 0,0.450247 -0.266473,0.707531 -0.845361,0.707531 h -0.119453 c -0.165397,0 -0.284851,0.101075 -0.284851,0.349171 0,0.248095 0.119454,0.349171 0.284851,0.349171 z m 0.09189,0.624832 c 0.624832,0 0.955626,0.303227 0.955626,0.955626 0,0.661587 -0.35836,1.093456 -1.047513,1.093456 -0.43187,0 -0.753474,-0.183774 -1.047513,-0.49619 -0.128642,-0.137831 -0.312416,-0.0827 -0.459436,0.07351 -0.174585,0.192963 -0.174585,0.349171 -0.05513,0.477813 0.367548,0.42268 0.891305,0.643209 1.562081,0.643209 1.240476,0 1.764232,-0.909682 1.764232,-1.810176 0,-0.99238 -0.597266,-1.433438 -1.755044,-1.433438 h -0.07351 c -0.229718,0 -0.404303,-0.14702 -0.404303,-0.459436 0,-0.09189 0.01838,-0.174585 0.04594,-0.238906 -0.119453,0.101075 -0.183774,0.266472 -0.183774,0.532945 0,0.505379 0.229718,0.661587 0.588077,0.661587 z m 1.663156,-2.131781 c 0,0.468624 -0.13783,0.790229 -0.413492,1.019947 0.156209,0.03675 0.367549,0.119453 0.532946,0.202152 0.385925,-0.275662 0.597266,-0.735097 0.597266,-1.277231 0,-0.983192 -0.542134,-1.755044 -1.635591,-1.755044 -1.093456,0 -1.598835,0.799418 -1.63559,1.653968 -0.0092,0.183774 0.110265,0.275661 0.35836,0.275661 0.248095,0 0.349171,-0.101075 0.358359,-0.238906 0.03675,-0.597266 0.376737,-0.992381 0.918871,-0.992381 0.542134,0 0.918871,0.422681 0.918871,1.111834 z" />
  </g>
</svg>
